<?xml version="1.0" encoding="UTF-8" standalone="no"?>
<!DOCTYPE svg PUBLIC "-//W3C//DTD SVG 1.1//EN"
 "http://www.w3.org/Graphics/SVG/1.1/DTD/svg11.dtd">
<!-- Generated by graphviz version 2.30.1 (20201013.1554)
 -->
<!-- Title: snakemake_dag Pages: 1 -->
<svg width="390pt" height="1052pt"
 viewBox="0.00 0.00 390.00 1052.00" xmlns="http://www.w3.org/2000/svg" xmlns:xlink="http://www.w3.org/1999/xlink">
<g id="graph0" class="graph" transform="scale(1 1) rotate(0) translate(4 1048)">
<title>snakemake_dag</title>
<polygon fill="white" stroke="white" points="-4,5 -4,-1048 387,-1048 387,5 -4,5"/>
<!-- 0 -->
<g id="node1" class="node"><title>0</title>
<path fill="none" stroke="#88d856" stroke-width="2" d="M206,-36C206,-36 176,-36 176,-36 170,-36 164,-30 164,-24 164,-24 164,-12 164,-12 164,-6 170,-0 176,-0 176,-0 206,-0 206,-0 212,-0 218,-6 218,-12 218,-12 218,-24 218,-24 218,-30 212,-36 206,-36"/>
<text text-anchor="middle" x="191" y="-15.5" font-family="sans" font-size="10.00">all</text>
</g>
<!-- 1 -->
<g id="node2" class="node"><title>1</title>
<path fill="none" stroke="#568ad8" stroke-width="2" d="M161,-108C161,-108 131,-108 131,-108 125,-108 119,-102 119,-96 119,-96 119,-84 119,-84 119,-78 125,-72 131,-72 131,-72 161,-72 161,-72 167,-72 173,-78 173,-84 173,-84 173,-96 173,-96 173,-102 167,-108 161,-108"/>
<text text-anchor="middle" x="146" y="-87.5" font-family="sans" font-size="10.00">vep</text>
</g>
<!-- 1&#45;&gt;0 -->
<g id="edge1" class="edge"><title>1&#45;&gt;0</title>
<path fill="none" stroke="grey" stroke-width="2" d="M157.124,-71.6966C162.355,-63.5589 168.7,-53.689 174.478,-44.7013"/>
<polygon fill="grey" stroke="grey" points="177.541,-46.4088 180.004,-36.1043 171.653,-42.6235 177.541,-46.4088"/>
</g>
<!-- 2 -->
<g id="node3" class="node"><title>2</title>
<path fill="none" stroke="#d88d56" stroke-width="2" d="M170,-252C170,-252 12,-252 12,-252 6,-252 0,-246 0,-240 0,-240 0,-228 0,-228 0,-222 6,-216 12,-216 12,-216 170,-216 170,-216 176,-216 182,-222 182,-228 182,-228 182,-240 182,-240 182,-246 176,-252 170,-252"/>
<text text-anchor="middle" x="91" y="-237" font-family="sans" font-size="10.00">zip</text>
<text text-anchor="middle" x="91" y="-226" font-family="sans" font-size="10.00">prefix: 100S95F14R.SNPs.HF.mac2</text>
</g>
<!-- 2&#45;&gt;1 -->
<g id="edge3" class="edge"><title>2&#45;&gt;1</title>
<path fill="none" stroke="grey" stroke-width="2" d="M92.6972,-215.674C94.9505,-197.29 99.8884,-167.685 110,-144 114.084,-134.433 119.988,-124.784 125.838,-116.388"/>
<polygon fill="grey" stroke="grey" points="128.78,-118.294 131.835,-108.149 123.12,-114.174 128.78,-118.294"/>
</g>
<!-- 14 -->
<g id="node15" class="node"><title>14</title>
<path fill="none" stroke="#59d856" stroke-width="2" d="M161,-180C161,-180 131,-180 131,-180 125,-180 119,-174 119,-168 119,-168 119,-156 119,-156 119,-150 125,-144 131,-144 131,-144 161,-144 161,-144 167,-144 173,-150 173,-156 173,-156 173,-168 173,-168 173,-174 167,-180 161,-180"/>
<text text-anchor="middle" x="146" y="-159.5" font-family="sans" font-size="10.00">tabix</text>
</g>
<!-- 2&#45;&gt;14 -->
<g id="edge21" class="edge"><title>2&#45;&gt;14</title>
<path fill="none" stroke="grey" stroke-width="2" d="M104.596,-215.697C111.123,-207.389 119.068,-197.277 126.247,-188.141"/>
<polygon fill="grey" stroke="grey" points="129.135,-190.13 132.561,-180.104 123.631,-185.805 129.135,-190.13"/>
</g>
<!-- 3 -->
<g id="node4" class="node"><title>3</title>
<path fill="none" stroke="#d8bc56" stroke-width="2" d="M145,-324C145,-324 113,-324 113,-324 107,-324 101,-318 101,-312 101,-312 101,-300 101,-300 101,-294 107,-288 113,-288 113,-288 145,-288 145,-288 151,-288 157,-294 157,-300 157,-300 157,-312 157,-312 157,-318 151,-324 145,-324"/>
<text text-anchor="middle" x="129" y="-303.5" font-family="sans" font-size="10.00">vcfFilter</text>
</g>
<!-- 3&#45;&gt;2 -->
<g id="edge5" class="edge"><title>3&#45;&gt;2</title>
<path fill="none" stroke="grey" stroke-width="2" d="M119.607,-287.697C115.235,-279.644 109.943,-269.894 105.105,-260.982"/>
<polygon fill="grey" stroke="grey" points="108.132,-259.223 100.285,-252.104 101.98,-262.563 108.132,-259.223"/>
</g>
<!-- 4 -->
<g id="node5" class="node"><title>4</title>
<path fill="none" stroke="#59d856" stroke-width="2" stroke-dasharray="5,2" d="M215,-468C215,-468 185,-468 185,-468 179,-468 173,-462 173,-456 173,-456 173,-444 173,-444 173,-438 179,-432 185,-432 185,-432 215,-432 215,-432 221,-432 227,-438 227,-444 227,-444 227,-456 227,-456 227,-462 221,-468 215,-468"/>
<text text-anchor="middle" x="200" y="-447.5" font-family="sans" font-size="10.00">tabix</text>
</g>
<!-- 4&#45;&gt;3 -->
<g id="edge6" class="edge"><title>4&#45;&gt;3</title>
<path fill="none" stroke="grey" stroke-width="2" d="M199.182,-431.962C197.666,-413.298 193.34,-382.964 181,-360 175.29,-349.373 166.805,-339.433 158.337,-331.098"/>
<polygon fill="grey" stroke="grey" points="160.666,-328.483 150.971,-324.209 155.884,-333.596 160.666,-328.483"/>
</g>
<!-- 13 -->
<g id="node14" class="node"><title>13</title>
<path fill="none" stroke="#56d88a" stroke-width="2" stroke-dasharray="5,2" d="M160,-396C160,-396 130,-396 130,-396 124,-396 118,-390 118,-384 118,-384 118,-372 118,-372 118,-366 124,-360 130,-360 130,-360 160,-360 160,-360 166,-360 172,-366 172,-372 172,-372 172,-384 172,-384 172,-390 166,-396 160,-396"/>
<text text-anchor="middle" x="145" y="-375.5" font-family="sans" font-size="10.00">idepth</text>
</g>
<!-- 4&#45;&gt;13 -->
<g id="edge19" class="edge"><title>4&#45;&gt;13</title>
<path fill="none" stroke="grey" stroke-width="2" d="M186.404,-431.697C179.877,-423.389 171.932,-413.277 164.753,-404.141"/>
<polygon fill="grey" stroke="grey" points="167.369,-401.805 158.439,-396.104 161.865,-406.13 167.369,-401.805"/>
</g>
<!-- 17 -->
<g id="node18" class="node"><title>17</title>
<path fill="none" stroke="#d85656" stroke-width="2" d="M296,-324C296,-324 210,-324 210,-324 204,-324 198,-318 198,-312 198,-312 198,-300 198,-300 198,-294 204,-288 210,-288 210,-288 296,-288 296,-288 302,-288 308,-294 308,-300 308,-300 308,-312 308,-312 308,-318 302,-324 296,-324"/>
<text text-anchor="middle" x="253" y="-303.5" font-family="sans" font-size="10.00">keepSingletonFilter</text>
</g>
<!-- 4&#45;&gt;17 -->
<g id="edge25" class="edge"><title>4&#45;&gt;17</title>
<path fill="none" stroke="grey" stroke-width="2" d="M206.393,-431.871C215.505,-407.457 232.313,-362.426 243.059,-333.635"/>
<polygon fill="grey" stroke="grey" points="246.367,-334.782 246.584,-324.189 239.808,-332.334 246.367,-334.782"/>
</g>
<!-- 5 -->
<g id="node6" class="node"><title>5</title>
<path fill="none" stroke="#d88d56" stroke-width="2" stroke-dasharray="5,2" d="M237,-540C237,-540 107,-540 107,-540 101,-540 95,-534 95,-528 95,-528 95,-516 95,-516 95,-510 101,-504 107,-504 107,-504 237,-504 237,-504 243,-504 249,-510 249,-516 249,-516 249,-528 249,-528 249,-534 243,-540 237,-540"/>
<text text-anchor="middle" x="172" y="-525" font-family="sans" font-size="10.00">zip</text>
<text text-anchor="middle" x="172" y="-514" font-family="sans" font-size="10.00">prefix: 100S95F14R.SNPs.HF</text>
</g>
<!-- 5&#45;&gt;3 -->
<g id="edge7" class="edge"><title>5&#45;&gt;3</title>
<path fill="none" stroke="grey" stroke-width="2" d="M160.024,-503.803C144.665,-480.595 118.837,-437.375 109,-396 105.299,-380.434 106.129,-375.74 109,-360 110.606,-351.196 113.597,-341.954 116.786,-333.698"/>
<polygon fill="grey" stroke="grey" points="120.121,-334.791 120.694,-324.212 113.649,-332.125 120.121,-334.791"/>
</g>
<!-- 5&#45;&gt;4 -->
<g id="edge9" class="edge"><title>5&#45;&gt;4</title>
<path fill="none" stroke="grey" stroke-width="2" d="M178.921,-503.697C182.075,-495.813 185.878,-486.304 189.381,-477.546"/>
<polygon fill="grey" stroke="grey" points="192.694,-478.689 193.158,-468.104 186.195,-476.089 192.694,-478.689"/>
</g>
<!-- 5&#45;&gt;13 -->
<g id="edge20" class="edge"><title>5&#45;&gt;13</title>
<path fill="none" stroke="grey" stroke-width="2" d="M168.743,-503.871C164.142,-479.67 155.688,-435.211 150.209,-406.393"/>
<polygon fill="grey" stroke="grey" points="153.575,-405.359 148.268,-396.189 146.698,-406.667 153.575,-405.359"/>
</g>
<!-- 5&#45;&gt;17 -->
<g id="edge26" class="edge"><title>5&#45;&gt;17</title>
<path fill="none" stroke="grey" stroke-width="2" d="M201.724,-503.783C214.449,-494.802 228.16,-482.621 236,-468 258.771,-425.532 258.667,-367.736 256.114,-334.19"/>
<polygon fill="grey" stroke="grey" points="259.597,-333.851 255.225,-324.201 252.625,-334.472 259.597,-333.851"/>
</g>
<!-- 6 -->
<g id="node7" class="node"><title>6</title>
<path fill="none" stroke="#56c1d8" stroke-width="2" stroke-dasharray="5,2" d="M215,-612C215,-612 129,-612 129,-612 123,-612 117,-606 117,-600 117,-600 117,-588 117,-588 117,-582 123,-576 129,-576 129,-576 215,-576 215,-576 221,-576 227,-582 227,-588 227,-588 227,-600 227,-600 227,-606 221,-612 215,-612"/>
<text text-anchor="middle" x="172" y="-597" font-family="sans" font-size="10.00">filterSNPs</text>
<text text-anchor="middle" x="172" y="-586" font-family="sans" font-size="10.00">prefix: 100S95F14R</text>
</g>
<!-- 6&#45;&gt;5 -->
<g id="edge10" class="edge"><title>6&#45;&gt;5</title>
<path fill="none" stroke="grey" stroke-width="2" d="M172,-575.697C172,-567.983 172,-558.712 172,-550.112"/>
<polygon fill="grey" stroke="grey" points="175.5,-550.104 172,-540.104 168.5,-550.104 175.5,-550.104"/>
</g>
<!-- 7 -->
<g id="node8" class="node"><title>7</title>
<path fill="none" stroke="#59d856" stroke-width="2" stroke-dasharray="5,2" d="M160,-684C160,-684 130,-684 130,-684 124,-684 118,-678 118,-672 118,-672 118,-660 118,-660 118,-654 124,-648 130,-648 130,-648 160,-648 160,-648 166,-648 172,-654 172,-660 172,-660 172,-672 172,-672 172,-678 166,-684 160,-684"/>
<text text-anchor="middle" x="145" y="-663.5" font-family="sans" font-size="10.00">tabix</text>
</g>
<!-- 7&#45;&gt;6 -->
<g id="edge11" class="edge"><title>7&#45;&gt;6</title>
<path fill="none" stroke="grey" stroke-width="2" d="M151.674,-647.697C154.715,-639.813 158.383,-630.304 161.761,-621.546"/>
<polygon fill="grey" stroke="grey" points="165.069,-622.694 165.403,-612.104 158.538,-620.175 165.069,-622.694"/>
</g>
<!-- 8 -->
<g id="node9" class="node"><title>8</title>
<path fill="none" stroke="#d88d56" stroke-width="2" stroke-dasharray="5,2" d="M229,-756C229,-756 115,-756 115,-756 109,-756 103,-750 103,-744 103,-744 103,-732 103,-732 103,-726 109,-720 115,-720 115,-720 229,-720 229,-720 235,-720 241,-726 241,-732 241,-732 241,-744 241,-744 241,-750 235,-756 229,-756"/>
<text text-anchor="middle" x="172" y="-741" font-family="sans" font-size="10.00">zip</text>
<text text-anchor="middle" x="172" y="-730" font-family="sans" font-size="10.00">prefix: 100S95F14R.SNPs</text>
</g>
<!-- 8&#45;&gt;6 -->
<g id="edge12" class="edge"><title>8&#45;&gt;6</title>
<path fill="none" stroke="grey" stroke-width="2" d="M175.654,-719.908C177.676,-709.569 179.981,-696.09 181,-684 182.344,-668.057 182.344,-663.943 181,-648 180.283,-639.499 178.931,-630.312 177.488,-622.012"/>
<polygon fill="grey" stroke="grey" points="180.914,-621.289 175.654,-612.092 174.031,-622.562 180.914,-621.289"/>
</g>
<!-- 8&#45;&gt;7 -->
<g id="edge13" class="edge"><title>8&#45;&gt;7</title>
<path fill="none" stroke="grey" stroke-width="2" d="M165.326,-719.697C162.285,-711.813 158.617,-702.304 155.239,-693.546"/>
<polygon fill="grey" stroke="grey" points="158.462,-692.175 151.597,-684.104 151.931,-694.694 158.462,-692.175"/>
</g>
<!-- 9 -->
<g id="node10" class="node"><title>9</title>
<path fill="none" stroke="#bed856" stroke-width="2" stroke-dasharray="5,2" d="M198,-828C198,-828 146,-828 146,-828 140,-828 134,-822 134,-816 134,-816 134,-804 134,-804 134,-798 140,-792 146,-792 146,-792 198,-792 198,-792 204,-792 210,-798 210,-804 210,-804 210,-816 210,-816 210,-822 204,-828 198,-828"/>
<text text-anchor="middle" x="172" y="-807.5" font-family="sans" font-size="10.00">extractSNPs</text>
</g>
<!-- 9&#45;&gt;8 -->
<g id="edge14" class="edge"><title>9&#45;&gt;8</title>
<path fill="none" stroke="grey" stroke-width="2" d="M172,-791.697C172,-783.983 172,-774.712 172,-766.112"/>
<polygon fill="grey" stroke="grey" points="175.5,-766.104 172,-756.104 168.5,-766.104 175.5,-766.104"/>
</g>
<!-- 10 -->
<g id="node11" class="node"><title>10</title>
<path fill="none" stroke="#59d856" stroke-width="2" stroke-dasharray="5,2" d="M160,-900C160,-900 130,-900 130,-900 124,-900 118,-894 118,-888 118,-888 118,-876 118,-876 118,-870 124,-864 130,-864 130,-864 160,-864 160,-864 166,-864 172,-870 172,-876 172,-876 172,-888 172,-888 172,-894 166,-900 160,-900"/>
<text text-anchor="middle" x="145" y="-879.5" font-family="sans" font-size="10.00">tabix</text>
</g>
<!-- 10&#45;&gt;9 -->
<g id="edge15" class="edge"><title>10&#45;&gt;9</title>
<path fill="none" stroke="grey" stroke-width="2" d="M151.674,-863.697C154.715,-855.813 158.383,-846.304 161.761,-837.546"/>
<polygon fill="grey" stroke="grey" points="165.069,-838.694 165.403,-828.104 158.538,-836.175 165.069,-838.694"/>
</g>
<!-- 11 -->
<g id="node12" class="node"><title>11</title>
<path fill="none" stroke="#d88d56" stroke-width="2" stroke-dasharray="5,2" d="M187,-972C187,-972 157,-972 157,-972 151,-972 145,-966 145,-960 145,-960 145,-948 145,-948 145,-942 151,-936 157,-936 157,-936 187,-936 187,-936 193,-936 199,-942 199,-948 199,-948 199,-960 199,-960 199,-966 193,-972 187,-972"/>
<text text-anchor="middle" x="172" y="-951.5" font-family="sans" font-size="10.00">zip</text>
</g>
<!-- 11&#45;&gt;9 -->
<g id="edge16" class="edge"><title>11&#45;&gt;9</title>
<path fill="none" stroke="grey" stroke-width="2" d="M175.654,-935.908C177.676,-925.569 179.981,-912.09 181,-900 182.344,-884.057 182.344,-879.943 181,-864 180.283,-855.499 178.931,-846.312 177.488,-838.012"/>
<polygon fill="grey" stroke="grey" points="180.914,-837.289 175.654,-828.092 174.031,-838.562 180.914,-837.289"/>
</g>
<!-- 11&#45;&gt;10 -->
<g id="edge17" class="edge"><title>11&#45;&gt;10</title>
<path fill="none" stroke="grey" stroke-width="2" d="M165.326,-935.697C162.285,-927.813 158.617,-918.304 155.239,-909.546"/>
<polygon fill="grey" stroke="grey" points="158.462,-908.175 151.597,-900.104 151.931,-910.694 158.462,-908.175"/>
</g>
<!-- 12 -->
<g id="node13" class="node"><title>12</title>
<path fill="none" stroke="#56d8c1" stroke-width="2" stroke-dasharray="5,2" d="M215,-1044C215,-1044 129,-1044 129,-1044 123,-1044 117,-1038 117,-1032 117,-1032 117,-1020 117,-1020 117,-1014 123,-1008 129,-1008 129,-1008 215,-1008 215,-1008 221,-1008 227,-1014 227,-1020 227,-1020 227,-1032 227,-1032 227,-1038 221,-1044 215,-1044"/>
<text text-anchor="middle" x="172" y="-1029" font-family="sans" font-size="10.00">GenotypeGVCFs</text>
<text text-anchor="middle" x="172" y="-1018" font-family="sans" font-size="10.00">prefix: 100S95F14R</text>
</g>
<!-- 12&#45;&gt;11 -->
<g id="edge18" class="edge"><title>12&#45;&gt;11</title>
<path fill="none" stroke="grey" stroke-width="2" d="M172,-1007.7C172,-999.983 172,-990.712 172,-982.112"/>
<polygon fill="grey" stroke="grey" points="175.5,-982.104 172,-972.104 168.5,-982.104 175.5,-982.104"/>
</g>
<!-- 13&#45;&gt;3 -->
<g id="edge8" class="edge"><title>13&#45;&gt;3</title>
<path fill="none" stroke="grey" stroke-width="2" d="M141.045,-359.697C139.282,-351.983 137.163,-342.712 135.197,-334.112"/>
<polygon fill="grey" stroke="grey" points="138.55,-333.073 132.91,-324.104 131.726,-334.633 138.55,-333.073"/>
</g>
<!-- 13&#45;&gt;17 -->
<g id="edge27" class="edge"><title>13&#45;&gt;17</title>
<path fill="none" stroke="grey" stroke-width="2" d="M171.42,-359.876C185.41,-350.808 202.776,-339.552 217.886,-329.759"/>
<polygon fill="grey" stroke="grey" points="219.991,-332.566 226.479,-324.19 216.183,-326.692 219.991,-332.566"/>
</g>
<!-- 14&#45;&gt;1 -->
<g id="edge4" class="edge"><title>14&#45;&gt;1</title>
<path fill="none" stroke="grey" stroke-width="2" d="M146,-143.697C146,-135.983 146,-126.712 146,-118.112"/>
<polygon fill="grey" stroke="grey" points="149.5,-118.104 146,-108.104 142.5,-118.104 149.5,-118.104"/>
</g>
<!-- 15 -->
<g id="node16" class="node"><title>15</title>
<path fill="none" stroke="#568ad8" stroke-width="2" d="M251,-108C251,-108 221,-108 221,-108 215,-108 209,-102 209,-96 209,-96 209,-84 209,-84 209,-78 215,-72 221,-72 221,-72 251,-72 251,-72 257,-72 263,-78 263,-84 263,-84 263,-96 263,-96 263,-102 257,-108 251,-108"/>
<text text-anchor="middle" x="236" y="-87.5" font-family="sans" font-size="10.00">vep</text>
</g>
<!-- 15&#45;&gt;0 -->
<g id="edge2" class="edge"><title>15&#45;&gt;0</title>
<path fill="none" stroke="grey" stroke-width="2" d="M224.876,-71.6966C219.645,-63.5589 213.3,-53.689 207.522,-44.7013"/>
<polygon fill="grey" stroke="grey" points="210.347,-42.6235 201.996,-36.1043 204.459,-46.4088 210.347,-42.6235"/>
</g>
<!-- 16 -->
<g id="node17" class="node"><title>16</title>
<path fill="none" stroke="#d88d56" stroke-width="2" d="M370,-252C370,-252 212,-252 212,-252 206,-252 200,-246 200,-240 200,-240 200,-228 200,-228 200,-222 206,-216 212,-216 212,-216 370,-216 370,-216 376,-216 382,-222 382,-228 382,-228 382,-240 382,-240 382,-246 376,-252 370,-252"/>
<text text-anchor="middle" x="291" y="-237" font-family="sans" font-size="10.00">zip</text>
<text text-anchor="middle" x="291" y="-226" font-family="sans" font-size="10.00">prefix: 100S95F14R.SNPs.HF.mac1</text>
</g>
<!-- 16&#45;&gt;15 -->
<g id="edge22" class="edge"><title>16&#45;&gt;15</title>
<path fill="none" stroke="grey" stroke-width="2" d="M276.835,-215.851C269.31,-205.93 260.503,-192.89 255,-180 246.587,-160.293 241.755,-136.488 239.072,-118.458"/>
<polygon fill="grey" stroke="grey" points="242.51,-117.764 237.697,-108.326 235.573,-118.705 242.51,-117.764"/>
</g>
<!-- 18 -->
<g id="node19" class="node"><title>18</title>
<path fill="none" stroke="#59d856" stroke-width="2" d="M306,-180C306,-180 276,-180 276,-180 270,-180 264,-174 264,-168 264,-168 264,-156 264,-156 264,-150 270,-144 276,-144 276,-144 306,-144 306,-144 312,-144 318,-150 318,-156 318,-156 318,-168 318,-168 318,-174 312,-180 306,-180"/>
<text text-anchor="middle" x="291" y="-159.5" font-family="sans" font-size="10.00">tabix</text>
</g>
<!-- 16&#45;&gt;18 -->
<g id="edge28" class="edge"><title>16&#45;&gt;18</title>
<path fill="none" stroke="grey" stroke-width="2" d="M291,-215.697C291,-207.983 291,-198.712 291,-190.112"/>
<polygon fill="grey" stroke="grey" points="294.5,-190.104 291,-180.104 287.5,-190.104 294.5,-190.104"/>
</g>
<!-- 17&#45;&gt;16 -->
<g id="edge24" class="edge"><title>17&#45;&gt;16</title>
<path fill="none" stroke="grey" stroke-width="2" d="M262.393,-287.697C266.765,-279.644 272.057,-269.894 276.895,-260.982"/>
<polygon fill="grey" stroke="grey" points="280.02,-262.563 281.715,-252.104 273.868,-259.223 280.02,-262.563"/>
</g>
<!-- 18&#45;&gt;15 -->
<g id="edge23" class="edge"><title>18&#45;&gt;15</title>
<path fill="none" stroke="grey" stroke-width="2" d="M277.404,-143.697C270.877,-135.389 262.932,-125.277 255.753,-116.141"/>
<polygon fill="grey" stroke="grey" points="258.369,-113.805 249.439,-108.104 252.865,-118.13 258.369,-113.805"/>
</g>
</g>
</svg>
