<?xml version="1.0" encoding="UTF-8" standalone="no"?>
<!DOCTYPE svg PUBLIC "-//W3C//DTD SVG 1.1//EN"
 "http://www.w3.org/Graphics/SVG/1.1/DTD/svg11.dtd">
<!-- Generated by graphviz version 2.30.1 (20201013.1554)
 -->
<!-- Title: snakemake_dag Pages: 1 -->
<svg width="375pt" height="908pt"
 viewBox="0.00 0.00 375.00 908.00" xmlns="http://www.w3.org/2000/svg" xmlns:xlink="http://www.w3.org/1999/xlink">
<g id="graph0" class="graph" transform="scale(1 1) rotate(0) translate(4 904)">
<title>snakemake_dag</title>
<polygon fill="white" stroke="white" points="-4,5 -4,-904 372,-904 372,5 -4,5"/>
<!-- 0 -->
<g id="node1" class="node"><title>0</title>
<path fill="none" stroke="#59d856" stroke-width="2" d="M198,-36C198,-36 168,-36 168,-36 162,-36 156,-30 156,-24 156,-24 156,-12 156,-12 156,-6 162,-0 168,-0 168,-0 198,-0 198,-0 204,-0 210,-6 210,-12 210,-12 210,-24 210,-24 210,-30 204,-36 198,-36"/>
<text text-anchor="middle" x="183" y="-15.5" font-family="sans" font-size="10.00">all</text>
</g>
<!-- 1 -->
<g id="node2" class="node"><title>1</title>
<path fill="none" stroke="#568ad8" stroke-width="2" d="M157,-108C157,-108 127,-108 127,-108 121,-108 115,-102 115,-96 115,-96 115,-84 115,-84 115,-78 121,-72 127,-72 127,-72 157,-72 157,-72 163,-72 169,-78 169,-84 169,-84 169,-96 169,-96 169,-102 163,-108 157,-108"/>
<text text-anchor="middle" x="142" y="-87.5" font-family="sans" font-size="10.00">vep</text>
</g>
<!-- 1&#45;&gt;0 -->
<g id="edge1" class="edge"><title>1&#45;&gt;0</title>
<path fill="none" stroke="grey" stroke-width="2" d="M152.135,-71.6966C156.852,-63.6436 162.562,-53.8945 167.782,-44.9824"/>
<polygon fill="grey" stroke="grey" points="170.948,-46.5021 172.982,-36.1043 164.908,-42.9643 170.948,-46.5021"/>
</g>
<!-- 2 -->
<g id="node3" class="node"><title>2</title>
<path fill="none" stroke="#88d856" stroke-width="2" d="M162.25,-252C162.25,-252 11.75,-252 11.75,-252 5.75,-252 -0.25,-246 -0.25,-240 -0.25,-240 -0.25,-228 -0.25,-228 -0.25,-222 5.75,-216 11.75,-216 11.75,-216 162.25,-216 162.25,-216 168.25,-216 174.25,-222 174.25,-228 174.25,-228 174.25,-240 174.25,-240 174.25,-246 168.25,-252 162.25,-252"/>
<text text-anchor="middle" x="87" y="-237" font-family="sans" font-size="10.00">zip</text>
<text text-anchor="middle" x="87" y="-226" font-family="sans" font-size="10.00">prefix: 74Females.SNPs.HF.mac2</text>
</g>
<!-- 2&#45;&gt;1 -->
<g id="edge3" class="edge"><title>2&#45;&gt;1</title>
<path fill="none" stroke="grey" stroke-width="2" d="M88.6972,-215.674C90.9505,-197.29 95.8884,-167.685 106,-144 110.084,-134.433 115.988,-124.784 121.838,-116.388"/>
<polygon fill="grey" stroke="grey" points="124.78,-118.294 127.835,-108.149 119.12,-114.174 124.78,-118.294"/>
</g>
<!-- 12 -->
<g id="node13" class="node"><title>12</title>
<path fill="none" stroke="#d8bc56" stroke-width="2" d="M157,-180C157,-180 127,-180 127,-180 121,-180 115,-174 115,-168 115,-168 115,-156 115,-156 115,-150 121,-144 127,-144 127,-144 157,-144 157,-144 163,-144 169,-150 169,-156 169,-156 169,-168 169,-168 169,-174 163,-180 157,-180"/>
<text text-anchor="middle" x="142" y="-159.5" font-family="sans" font-size="10.00">tabix</text>
</g>
<!-- 2&#45;&gt;12 -->
<g id="edge18" class="edge"><title>2&#45;&gt;12</title>
<path fill="none" stroke="grey" stroke-width="2" d="M100.596,-215.697C107.123,-207.389 115.068,-197.277 122.247,-188.141"/>
<polygon fill="grey" stroke="grey" points="125.135,-190.13 128.561,-180.104 119.631,-185.805 125.135,-190.13"/>
</g>
<!-- 3 -->
<g id="node4" class="node"><title>3</title>
<path fill="none" stroke="#56d88a" stroke-width="2" d="M137,-324C137,-324 105,-324 105,-324 99,-324 93,-318 93,-312 93,-312 93,-300 93,-300 93,-294 99,-288 105,-288 105,-288 137,-288 137,-288 143,-288 149,-294 149,-300 149,-300 149,-312 149,-312 149,-318 143,-324 137,-324"/>
<text text-anchor="middle" x="121" y="-303.5" font-family="sans" font-size="10.00">vcfFilter</text>
</g>
<!-- 3&#45;&gt;2 -->
<g id="edge5" class="edge"><title>3&#45;&gt;2</title>
<path fill="none" stroke="grey" stroke-width="2" d="M112.596,-287.697C108.725,-279.728 104.048,-270.1 99.7569,-261.264"/>
<polygon fill="grey" stroke="grey" points="102.825,-259.57 95.3078,-252.104 96.5286,-262.629 102.825,-259.57"/>
</g>
<!-- 4 -->
<g id="node5" class="node"><title>4</title>
<path fill="none" stroke="#d8bc56" stroke-width="2" d="M207,-468C207,-468 177,-468 177,-468 171,-468 165,-462 165,-456 165,-456 165,-444 165,-444 165,-438 171,-432 177,-432 177,-432 207,-432 207,-432 213,-432 219,-438 219,-444 219,-444 219,-456 219,-456 219,-462 213,-468 207,-468"/>
<text text-anchor="middle" x="192" y="-447.5" font-family="sans" font-size="10.00">tabix</text>
</g>
<!-- 4&#45;&gt;3 -->
<g id="edge6" class="edge"><title>4&#45;&gt;3</title>
<path fill="none" stroke="grey" stroke-width="2" d="M191.182,-431.962C189.666,-413.298 185.34,-382.964 173,-360 167.29,-349.373 158.805,-339.433 150.337,-331.098"/>
<polygon fill="grey" stroke="grey" points="152.666,-328.483 142.971,-324.209 147.884,-333.596 152.666,-328.483"/>
</g>
<!-- 11 -->
<g id="node12" class="node"><title>11</title>
<path fill="none" stroke="#56c1d8" stroke-width="2" d="M152,-396C152,-396 122,-396 122,-396 116,-396 110,-390 110,-384 110,-384 110,-372 110,-372 110,-366 116,-360 122,-360 122,-360 152,-360 152,-360 158,-360 164,-366 164,-372 164,-372 164,-384 164,-384 164,-390 158,-396 152,-396"/>
<text text-anchor="middle" x="137" y="-375.5" font-family="sans" font-size="10.00">idepth</text>
</g>
<!-- 4&#45;&gt;11 -->
<g id="edge16" class="edge"><title>4&#45;&gt;11</title>
<path fill="none" stroke="grey" stroke-width="2" d="M178.404,-431.697C171.877,-423.389 163.932,-413.277 156.753,-404.141"/>
<polygon fill="grey" stroke="grey" points="159.369,-401.805 150.439,-396.104 153.865,-406.13 159.369,-401.805"/>
</g>
<!-- 15 -->
<g id="node16" class="node"><title>15</title>
<path fill="none" stroke="#56d8c1" stroke-width="2" d="M288,-324C288,-324 202,-324 202,-324 196,-324 190,-318 190,-312 190,-312 190,-300 190,-300 190,-294 196,-288 202,-288 202,-288 288,-288 288,-288 294,-288 300,-294 300,-300 300,-300 300,-312 300,-312 300,-318 294,-324 288,-324"/>
<text text-anchor="middle" x="245" y="-303.5" font-family="sans" font-size="10.00">keepSingletonFilter</text>
</g>
<!-- 4&#45;&gt;15 -->
<g id="edge22" class="edge"><title>4&#45;&gt;15</title>
<path fill="none" stroke="grey" stroke-width="2" d="M198.393,-431.871C207.505,-407.457 224.313,-362.426 235.059,-333.635"/>
<polygon fill="grey" stroke="grey" points="238.367,-334.782 238.584,-324.189 231.808,-332.334 238.367,-334.782"/>
</g>
<!-- 5 -->
<g id="node6" class="node"><title>5</title>
<path fill="none" stroke="#88d856" stroke-width="2" d="M225,-540C225,-540 103,-540 103,-540 97,-540 91,-534 91,-528 91,-528 91,-516 91,-516 91,-510 97,-504 103,-504 103,-504 225,-504 225,-504 231,-504 237,-510 237,-516 237,-516 237,-528 237,-528 237,-534 231,-540 225,-540"/>
<text text-anchor="middle" x="164" y="-525" font-family="sans" font-size="10.00">zip</text>
<text text-anchor="middle" x="164" y="-514" font-family="sans" font-size="10.00">prefix: 74Females.SNPs.HF</text>
</g>
<!-- 5&#45;&gt;3 -->
<g id="edge7" class="edge"><title>5&#45;&gt;3</title>
<path fill="none" stroke="grey" stroke-width="2" d="M152.024,-503.803C136.665,-480.595 110.837,-437.375 101,-396 97.2991,-380.434 98.1289,-375.74 101,-360 102.606,-351.196 105.597,-341.954 108.786,-333.698"/>
<polygon fill="grey" stroke="grey" points="112.121,-334.791 112.694,-324.212 105.649,-332.125 112.121,-334.791"/>
</g>
<!-- 5&#45;&gt;4 -->
<g id="edge9" class="edge"><title>5&#45;&gt;4</title>
<path fill="none" stroke="grey" stroke-width="2" d="M170.921,-503.697C174.075,-495.813 177.878,-486.304 181.381,-477.546"/>
<polygon fill="grey" stroke="grey" points="184.694,-478.689 185.158,-468.104 178.195,-476.089 184.694,-478.689"/>
</g>
<!-- 5&#45;&gt;11 -->
<g id="edge17" class="edge"><title>5&#45;&gt;11</title>
<path fill="none" stroke="grey" stroke-width="2" d="M160.743,-503.871C156.142,-479.67 147.688,-435.211 142.209,-406.393"/>
<polygon fill="grey" stroke="grey" points="145.575,-405.359 140.268,-396.189 138.698,-406.667 145.575,-405.359"/>
</g>
<!-- 5&#45;&gt;15 -->
<g id="edge23" class="edge"><title>5&#45;&gt;15</title>
<path fill="none" stroke="grey" stroke-width="2" d="M193.724,-503.783C206.449,-494.802 220.16,-482.621 228,-468 250.771,-425.532 250.667,-367.736 248.114,-334.19"/>
<polygon fill="grey" stroke="grey" points="251.597,-333.851 247.225,-324.201 244.625,-334.472 251.597,-333.851"/>
</g>
<!-- 6 -->
<g id="node7" class="node"><title>6</title>
<path fill="none" stroke="#d85656" stroke-width="2" d="M203.25,-612C203.25,-612 124.75,-612 124.75,-612 118.75,-612 112.75,-606 112.75,-600 112.75,-600 112.75,-588 112.75,-588 112.75,-582 118.75,-576 124.75,-576 124.75,-576 203.25,-576 203.25,-576 209.25,-576 215.25,-582 215.25,-588 215.25,-588 215.25,-600 215.25,-600 215.25,-606 209.25,-612 203.25,-612"/>
<text text-anchor="middle" x="164" y="-597" font-family="sans" font-size="10.00">filterSNPs</text>
<text text-anchor="middle" x="164" y="-586" font-family="sans" font-size="10.00">prefix: 74Females</text>
</g>
<!-- 6&#45;&gt;5 -->
<g id="edge10" class="edge"><title>6&#45;&gt;5</title>
<path fill="none" stroke="grey" stroke-width="2" d="M164,-575.697C164,-567.983 164,-558.712 164,-550.112"/>
<polygon fill="grey" stroke="grey" points="167.5,-550.104 164,-540.104 160.5,-550.104 167.5,-550.104"/>
</g>
<!-- 7 -->
<g id="node8" class="node"><title>7</title>
<path fill="none" stroke="#d8bc56" stroke-width="2" d="M152,-684C152,-684 122,-684 122,-684 116,-684 110,-678 110,-672 110,-672 110,-660 110,-660 110,-654 116,-648 122,-648 122,-648 152,-648 152,-648 158,-648 164,-654 164,-660 164,-660 164,-672 164,-672 164,-678 158,-684 152,-684"/>
<text text-anchor="middle" x="137" y="-663.5" font-family="sans" font-size="10.00">tabix</text>
</g>
<!-- 7&#45;&gt;6 -->
<g id="edge11" class="edge"><title>7&#45;&gt;6</title>
<path fill="none" stroke="grey" stroke-width="2" d="M143.674,-647.697C146.715,-639.813 150.383,-630.304 153.761,-621.546"/>
<polygon fill="grey" stroke="grey" points="157.069,-622.694 157.403,-612.104 150.538,-620.175 157.069,-622.694"/>
</g>
<!-- 8 -->
<g id="node9" class="node"><title>8</title>
<path fill="none" stroke="#88d856" stroke-width="2" d="M217.25,-756C217.25,-756 110.75,-756 110.75,-756 104.75,-756 98.75,-750 98.75,-744 98.75,-744 98.75,-732 98.75,-732 98.75,-726 104.75,-720 110.75,-720 110.75,-720 217.25,-720 217.25,-720 223.25,-720 229.25,-726 229.25,-732 229.25,-732 229.25,-744 229.25,-744 229.25,-750 223.25,-756 217.25,-756"/>
<text text-anchor="middle" x="164" y="-741" font-family="sans" font-size="10.00">zip</text>
<text text-anchor="middle" x="164" y="-730" font-family="sans" font-size="10.00">prefix: 74Females.SNPs</text>
</g>
<!-- 8&#45;&gt;6 -->
<g id="edge12" class="edge"><title>8&#45;&gt;6</title>
<path fill="none" stroke="grey" stroke-width="2" d="M167.654,-719.908C169.676,-709.569 171.981,-696.09 173,-684 174.344,-668.057 174.344,-663.943 173,-648 172.283,-639.499 170.931,-630.312 169.488,-622.012"/>
<polygon fill="grey" stroke="grey" points="172.914,-621.289 167.654,-612.092 166.031,-622.562 172.914,-621.289"/>
</g>
<!-- 8&#45;&gt;7 -->
<g id="edge13" class="edge"><title>8&#45;&gt;7</title>
<path fill="none" stroke="grey" stroke-width="2" d="M157.326,-719.697C154.285,-711.813 150.617,-702.304 147.239,-693.546"/>
<polygon fill="grey" stroke="grey" points="150.462,-692.175 143.597,-684.104 143.931,-694.694 150.462,-692.175"/>
</g>
<!-- 9 -->
<g id="node10" class="node"><title>9</title>
<path fill="none" stroke="#d88d56" stroke-width="2" d="M190,-828C190,-828 138,-828 138,-828 132,-828 126,-822 126,-816 126,-816 126,-804 126,-804 126,-798 132,-792 138,-792 138,-792 190,-792 190,-792 196,-792 202,-798 202,-804 202,-804 202,-816 202,-816 202,-822 196,-828 190,-828"/>
<text text-anchor="middle" x="164" y="-807.5" font-family="sans" font-size="10.00">extractSNPs</text>
</g>
<!-- 9&#45;&gt;8 -->
<g id="edge14" class="edge"><title>9&#45;&gt;8</title>
<path fill="none" stroke="grey" stroke-width="2" d="M164,-791.697C164,-783.983 164,-774.712 164,-766.112"/>
<polygon fill="grey" stroke="grey" points="167.5,-766.104 164,-756.104 160.5,-766.104 167.5,-766.104"/>
</g>
<!-- 10 -->
<g id="node11" class="node"><title>10</title>
<path fill="none" stroke="#d8bc56" stroke-width="2" stroke-dasharray="5,2" d="M203.25,-900C203.25,-900 124.75,-900 124.75,-900 118.75,-900 112.75,-894 112.75,-888 112.75,-888 112.75,-876 112.75,-876 112.75,-870 118.75,-864 124.75,-864 124.75,-864 203.25,-864 203.25,-864 209.25,-864 215.25,-870 215.25,-876 215.25,-876 215.25,-888 215.25,-888 215.25,-894 209.25,-900 203.25,-900"/>
<text text-anchor="middle" x="164" y="-885" font-family="sans" font-size="10.00">tabix</text>
<text text-anchor="middle" x="164" y="-874" font-family="sans" font-size="10.00">prefix: 74Females</text>
</g>
<!-- 10&#45;&gt;9 -->
<g id="edge15" class="edge"><title>10&#45;&gt;9</title>
<path fill="none" stroke="grey" stroke-width="2" d="M164,-863.697C164,-855.983 164,-846.712 164,-838.112"/>
<polygon fill="grey" stroke="grey" points="167.5,-838.104 164,-828.104 160.5,-838.104 167.5,-838.104"/>
</g>
<!-- 11&#45;&gt;3 -->
<g id="edge8" class="edge"><title>11&#45;&gt;3</title>
<path fill="none" stroke="grey" stroke-width="2" d="M133.045,-359.697C131.282,-351.983 129.163,-342.712 127.197,-334.112"/>
<polygon fill="grey" stroke="grey" points="130.55,-333.073 124.91,-324.104 123.726,-334.633 130.55,-333.073"/>
</g>
<!-- 11&#45;&gt;15 -->
<g id="edge24" class="edge"><title>11&#45;&gt;15</title>
<path fill="none" stroke="grey" stroke-width="2" d="M163.42,-359.876C177.41,-350.808 194.776,-339.552 209.886,-329.759"/>
<polygon fill="grey" stroke="grey" points="211.991,-332.566 218.479,-324.19 208.183,-326.692 211.991,-332.566"/>
</g>
<!-- 12&#45;&gt;1 -->
<g id="edge4" class="edge"><title>12&#45;&gt;1</title>
<path fill="none" stroke="grey" stroke-width="2" d="M142,-143.697C142,-135.983 142,-126.712 142,-118.112"/>
<polygon fill="grey" stroke="grey" points="145.5,-118.104 142,-108.104 138.5,-118.104 145.5,-118.104"/>
</g>
<!-- 13 -->
<g id="node14" class="node"><title>13</title>
<path fill="none" stroke="#568ad8" stroke-width="2" d="M240,-108C240,-108 210,-108 210,-108 204,-108 198,-102 198,-96 198,-96 198,-84 198,-84 198,-78 204,-72 210,-72 210,-72 240,-72 240,-72 246,-72 252,-78 252,-84 252,-84 252,-96 252,-96 252,-102 246,-108 240,-108"/>
<text text-anchor="middle" x="225" y="-87.5" font-family="sans" font-size="10.00">vep</text>
</g>
<!-- 13&#45;&gt;0 -->
<g id="edge2" class="edge"><title>13&#45;&gt;0</title>
<path fill="none" stroke="grey" stroke-width="2" d="M214.618,-71.6966C209.735,-63.5589 203.813,-53.689 198.421,-44.7013"/>
<polygon fill="grey" stroke="grey" points="201.409,-42.8785 193.263,-36.1043 195.406,-46.48 201.409,-42.8785"/>
</g>
<!-- 14 -->
<g id="node15" class="node"><title>14</title>
<path fill="none" stroke="#88d856" stroke-width="2" d="M355.25,-252C355.25,-252 204.75,-252 204.75,-252 198.75,-252 192.75,-246 192.75,-240 192.75,-240 192.75,-228 192.75,-228 192.75,-222 198.75,-216 204.75,-216 204.75,-216 355.25,-216 355.25,-216 361.25,-216 367.25,-222 367.25,-228 367.25,-228 367.25,-240 367.25,-240 367.25,-246 361.25,-252 355.25,-252"/>
<text text-anchor="middle" x="280" y="-237" font-family="sans" font-size="10.00">zip</text>
<text text-anchor="middle" x="280" y="-226" font-family="sans" font-size="10.00">prefix: 74Females.SNPs.HF.mac1</text>
</g>
<!-- 14&#45;&gt;13 -->
<g id="edge19" class="edge"><title>14&#45;&gt;13</title>
<path fill="none" stroke="grey" stroke-width="2" d="M265.835,-215.851C258.31,-205.93 249.503,-192.89 244,-180 235.587,-160.293 230.755,-136.488 228.072,-118.458"/>
<polygon fill="grey" stroke="grey" points="231.51,-117.764 226.697,-108.326 224.573,-118.705 231.51,-117.764"/>
</g>
<!-- 16 -->
<g id="node17" class="node"><title>16</title>
<path fill="none" stroke="#d8bc56" stroke-width="2" d="M295,-180C295,-180 265,-180 265,-180 259,-180 253,-174 253,-168 253,-168 253,-156 253,-156 253,-150 259,-144 265,-144 265,-144 295,-144 295,-144 301,-144 307,-150 307,-156 307,-156 307,-168 307,-168 307,-174 301,-180 295,-180"/>
<text text-anchor="middle" x="280" y="-159.5" font-family="sans" font-size="10.00">tabix</text>
</g>
<!-- 14&#45;&gt;16 -->
<g id="edge25" class="edge"><title>14&#45;&gt;16</title>
<path fill="none" stroke="grey" stroke-width="2" d="M280,-215.697C280,-207.983 280,-198.712 280,-190.112"/>
<polygon fill="grey" stroke="grey" points="283.5,-190.104 280,-180.104 276.5,-190.104 283.5,-190.104"/>
</g>
<!-- 15&#45;&gt;14 -->
<g id="edge21" class="edge"><title>15&#45;&gt;14</title>
<path fill="none" stroke="grey" stroke-width="2" d="M253.652,-287.697C257.636,-279.728 262.45,-270.1 266.868,-261.264"/>
<polygon fill="grey" stroke="grey" points="270.106,-262.614 271.448,-252.104 263.845,-259.483 270.106,-262.614"/>
</g>
<!-- 16&#45;&gt;13 -->
<g id="edge20" class="edge"><title>16&#45;&gt;13</title>
<path fill="none" stroke="grey" stroke-width="2" d="M266.404,-143.697C259.877,-135.389 251.932,-125.277 244.753,-116.141"/>
<polygon fill="grey" stroke="grey" points="247.369,-113.805 238.439,-108.104 241.865,-118.13 247.369,-113.805"/>
</g>
</g>
</svg>
