<?xml version="1.0" encoding="UTF-8" standalone="no"?>
<!DOCTYPE svg PUBLIC "-//W3C//DTD SVG 1.1//EN"
 "http://www.w3.org/Graphics/SVG/1.1/DTD/svg11.dtd">
<!-- Generated by graphviz version 2.30.1 (20201013.1554)
 -->
<!-- Title: snakemake_dag Pages: 1 -->
<svg width="3624pt" height="482pt"
 viewBox="0.00 0.00 3624.00 482.00" xmlns="http://www.w3.org/2000/svg" xmlns:xlink="http://www.w3.org/1999/xlink">
<g id="graph0" class="graph" transform="scale(1 1) rotate(0) translate(4 478)">
<title>snakemake_dag</title>
<polygon fill="white" stroke="white" points="-4,5 -4,-478 3621,-478 3621,5 -4,5"/>
<!-- 0 -->
<g id="node1" class="node"><title>0</title>
<path fill="none" stroke="#56d8c1" stroke-width="2" d="M1840,-36C1840,-36 1810,-36 1810,-36 1804,-36 1798,-30 1798,-24 1798,-24 1798,-12 1798,-12 1798,-6 1804,-0 1810,-0 1810,-0 1840,-0 1840,-0 1846,-0 1852,-6 1852,-12 1852,-12 1852,-24 1852,-24 1852,-30 1846,-36 1840,-36"/>
<text text-anchor="middle" x="1825" y="-15.5" font-family="sans" font-size="10.00">all</text>
</g>
<!-- 1 -->
<g id="node2" class="node"><title>1</title>
<path fill="none" stroke="#d8bc56" stroke-width="2" d="M162.25,-113.5C162.25,-113.5 11.75,-113.5 11.75,-113.5 5.75,-113.5 -0.25,-107.5 -0.25,-101.5 -0.25,-101.5 -0.25,-84.5 -0.25,-84.5 -0.25,-78.5 5.75,-72.5 11.75,-72.5 11.75,-72.5 162.25,-72.5 162.25,-72.5 168.25,-72.5 174.25,-78.5 174.25,-84.5 174.25,-84.5 174.25,-101.5 174.25,-101.5 174.25,-107.5 168.25,-113.5 162.25,-113.5"/>
<text text-anchor="middle" x="87" y="-101.5" font-family="sans" font-size="10.00">extractBedSites</text>
<text text-anchor="middle" x="87" y="-90.5" font-family="sans" font-size="10.00">filter: 100S95F14R.chr1&#45;38.mac2</text>
<text text-anchor="middle" x="87" y="-79.5" font-family="sans" font-size="10.00">species: AfGWo</text>
</g>
<!-- 1&#45;&gt;0 -->
<g id="edge1" class="edge"><title>1&#45;&gt;0</title>
<path fill="none" stroke="grey" stroke-width="2" d="M174.272,-73.15C177.211,-72.7288 180.126,-72.3431 183,-72 508.677,-33.1163 1574.49,-21.3212 1787.69,-19.3259"/>
<polygon fill="grey" stroke="grey" points="1787.78,-22.8253 1797.75,-19.2332 1787.71,-15.8256 1787.78,-22.8253"/>
</g>
<!-- 2 -->
<g id="node3" class="node"><title>2</title>
<path fill="none" stroke="#d85656" stroke-width="2" stroke-dasharray="5,2" d="M395,-258C395,-258 365,-258 365,-258 359,-258 353,-252 353,-246 353,-246 353,-234 353,-234 353,-228 359,-222 365,-222 365,-222 395,-222 395,-222 401,-222 407,-228 407,-234 407,-234 407,-246 407,-246 407,-252 401,-258 395,-258"/>
<text text-anchor="middle" x="380" y="-237.5" font-family="sans" font-size="10.00">zip</text>
</g>
<!-- 2&#45;&gt;1 -->
<g id="edge21" class="edge"><title>2&#45;&gt;1</title>
<path fill="none" stroke="grey" stroke-width="2" d="M352.96,-225.619C303.641,-201.212 198.432,-149.146 136.138,-118.317"/>
<polygon fill="grey" stroke="grey" points="137.412,-115.043 126.897,-113.744 134.307,-121.316 137.412,-115.043"/>
</g>
<!-- 6 -->
<g id="node7" class="node"><title>6</title>
<path fill="none" stroke="#56d88a" stroke-width="2" stroke-dasharray="5,2" d="M395,-186C395,-186 365,-186 365,-186 359,-186 353,-180 353,-174 353,-174 353,-162 353,-162 353,-156 359,-150 365,-150 365,-150 395,-150 395,-150 401,-150 407,-156 407,-162 407,-162 407,-174 407,-174 407,-180 401,-186 395,-186"/>
<text text-anchor="middle" x="380" y="-165.5" font-family="sans" font-size="10.00">tabix</text>
</g>
<!-- 2&#45;&gt;6 -->
<g id="edge26" class="edge"><title>2&#45;&gt;6</title>
<path fill="none" stroke="grey" stroke-width="2" d="M380,-221.697C380,-213.983 380,-204.712 380,-196.112"/>
<polygon fill="grey" stroke="grey" points="383.5,-196.104 380,-186.104 376.5,-196.104 383.5,-196.104"/>
</g>
<!-- 7 -->
<g id="node8" class="node"><title>7</title>
<path fill="none" stroke="#d8bc56" stroke-width="2" d="M355.25,-113.5C355.25,-113.5 204.75,-113.5 204.75,-113.5 198.75,-113.5 192.75,-107.5 192.75,-101.5 192.75,-101.5 192.75,-84.5 192.75,-84.5 192.75,-78.5 198.75,-72.5 204.75,-72.5 204.75,-72.5 355.25,-72.5 355.25,-72.5 361.25,-72.5 367.25,-78.5 367.25,-84.5 367.25,-84.5 367.25,-101.5 367.25,-101.5 367.25,-107.5 361.25,-113.5 355.25,-113.5"/>
<text text-anchor="middle" x="280" y="-101.5" font-family="sans" font-size="10.00">extractBedSites</text>
<text text-anchor="middle" x="280" y="-90.5" font-family="sans" font-size="10.00">filter: 100S95F14R.chr1&#45;38.mac1</text>
<text text-anchor="middle" x="280" y="-79.5" font-family="sans" font-size="10.00">species: AfGWo</text>
</g>
<!-- 2&#45;&gt;7 -->
<g id="edge27" class="edge"><title>2&#45;&gt;7</title>
<path fill="none" stroke="grey" stroke-width="2" d="M368.136,-221.797C351.184,-197.217 319.834,-151.759 299.456,-122.212"/>
<polygon fill="grey" stroke="grey" points="302.325,-120.207 293.767,-113.962 296.563,-124.181 302.325,-120.207"/>
</g>
<!-- 36 -->
<g id="node37" class="node"><title>36</title>
<path fill="none" stroke="#d8bc56" stroke-width="2" d="M526,-113.5C526,-113.5 398,-113.5 398,-113.5 392,-113.5 386,-107.5 386,-101.5 386,-101.5 386,-84.5 386,-84.5 386,-78.5 392,-72.5 398,-72.5 398,-72.5 526,-72.5 526,-72.5 532,-72.5 538,-78.5 538,-84.5 538,-84.5 538,-101.5 538,-101.5 538,-107.5 532,-113.5 526,-113.5"/>
<text text-anchor="middle" x="462" y="-101.5" font-family="sans" font-size="10.00">extractBedSites</text>
<text text-anchor="middle" x="462" y="-90.5" font-family="sans" font-size="10.00">filter: 74Females.chrX.mac2</text>
<text text-anchor="middle" x="462" y="-79.5" font-family="sans" font-size="10.00">species: AfGWo</text>
</g>
<!-- 2&#45;&gt;36 -->
<g id="edge61" class="edge"><title>2&#45;&gt;36</title>
<path fill="none" stroke="grey" stroke-width="2" d="M392.6,-221.713C399.8,-211.533 408.8,-198.283 416,-186 428.017,-165.497 439.971,-141.449 448.68,-123.082"/>
<polygon fill="grey" stroke="grey" points="451.964,-124.323 453.043,-113.783 445.627,-121.349 451.964,-124.323"/>
</g>
<!-- 37 -->
<g id="node38" class="node"><title>37</title>
<path fill="none" stroke="#d8bc56" stroke-width="2" d="M696,-113.5C696,-113.5 568,-113.5 568,-113.5 562,-113.5 556,-107.5 556,-101.5 556,-101.5 556,-84.5 556,-84.5 556,-78.5 562,-72.5 568,-72.5 568,-72.5 696,-72.5 696,-72.5 702,-72.5 708,-78.5 708,-84.5 708,-84.5 708,-101.5 708,-101.5 708,-107.5 702,-113.5 696,-113.5"/>
<text text-anchor="middle" x="632" y="-101.5" font-family="sans" font-size="10.00">extractBedSites</text>
<text text-anchor="middle" x="632" y="-90.5" font-family="sans" font-size="10.00">filter: 74Females.chrX.mac1</text>
<text text-anchor="middle" x="632" y="-79.5" font-family="sans" font-size="10.00">species: AfGWo</text>
</g>
<!-- 2&#45;&gt;37 -->
<g id="edge63" class="edge"><title>2&#45;&gt;37</title>
<path fill="none" stroke="grey" stroke-width="2" d="M407.448,-223.206C451.131,-198.071 536.83,-148.76 588.801,-118.856"/>
<polygon fill="grey" stroke="grey" points="590.86,-121.71 597.782,-113.689 587.368,-115.643 590.86,-121.71"/>
</g>
<!-- 3 -->
<g id="node4" class="node"><title>3</title>
<path fill="none" stroke="#bed856" stroke-width="2" stroke-dasharray="5,2" d="M433.25,-330C433.25,-330 326.75,-330 326.75,-330 320.75,-330 314.75,-324 314.75,-318 314.75,-318 314.75,-306 314.75,-306 314.75,-300 320.75,-294 326.75,-294 326.75,-294 433.25,-294 433.25,-294 439.25,-294 445.25,-300 445.25,-306 445.25,-306 445.25,-318 445.25,-318 445.25,-324 439.25,-330 433.25,-330"/>
<text text-anchor="middle" x="380" y="-309.5" font-family="sans" font-size="10.00">AllsitesGenotypeGVCFs</text>
</g>
<!-- 3&#45;&gt;2 -->
<g id="edge23" class="edge"><title>3&#45;&gt;2</title>
<path fill="none" stroke="grey" stroke-width="2" d="M380,-293.697C380,-285.983 380,-276.712 380,-268.112"/>
<polygon fill="grey" stroke="grey" points="383.5,-268.104 380,-258.104 376.5,-268.104 383.5,-268.104"/>
</g>
<!-- 4 -->
<g id="node5" class="node"><title>4</title>
<path fill="none" stroke="#568ad8" stroke-width="2" stroke-dasharray="5,2" d="M412,-402C412,-402 348,-402 348,-402 342,-402 336,-396 336,-390 336,-390 336,-378 336,-378 336,-372 342,-366 348,-366 348,-366 412,-366 412,-366 418,-366 424,-372 424,-378 424,-378 424,-390 424,-390 424,-396 418,-402 412,-402"/>
<text text-anchor="middle" x="380" y="-381.5" font-family="sans" font-size="10.00">makeGVCFList</text>
</g>
<!-- 4&#45;&gt;3 -->
<g id="edge24" class="edge"><title>4&#45;&gt;3</title>
<path fill="none" stroke="grey" stroke-width="2" d="M380,-365.697C380,-357.983 380,-348.712 380,-340.112"/>
<polygon fill="grey" stroke="grey" points="383.5,-340.104 380,-330.104 376.5,-340.104 383.5,-340.104"/>
</g>
<!-- 5 -->
<g id="node6" class="node"><title>5</title>
<path fill="none" stroke="#56c1d8" stroke-width="2" stroke-dasharray="5,2" d="M417,-474C417,-474 343,-474 343,-474 337,-474 331,-468 331,-462 331,-462 331,-450 331,-450 331,-444 337,-438 343,-438 343,-438 417,-438 417,-438 423,-438 429,-444 429,-450 429,-450 429,-462 429,-462 429,-468 423,-474 417,-474"/>
<text text-anchor="middle" x="380" y="-459" font-family="sans" font-size="10.00">haplotype_caller</text>
<text text-anchor="middle" x="380" y="-448" font-family="sans" font-size="10.00">prefix: AfGWo</text>
</g>
<!-- 5&#45;&gt;4 -->
<g id="edge25" class="edge"><title>5&#45;&gt;4</title>
<path fill="none" stroke="grey" stroke-width="2" d="M380,-437.697C380,-429.983 380,-420.712 380,-412.112"/>
<polygon fill="grey" stroke="grey" points="383.5,-412.104 380,-402.104 376.5,-412.104 383.5,-412.104"/>
</g>
<!-- 6&#45;&gt;1 -->
<g id="edge22" class="edge"><title>6&#45;&gt;1</title>
<path fill="none" stroke="grey" stroke-width="2" d="M352.96,-160.263C312.969,-150.3 236.23,-131.18 175.421,-116.03"/>
<polygon fill="grey" stroke="grey" points="175.972,-112.56 165.422,-113.539 174.28,-119.352 175.972,-112.56"/>
</g>
<!-- 6&#45;&gt;7 -->
<g id="edge28" class="edge"><title>6&#45;&gt;7</title>
<path fill="none" stroke="grey" stroke-width="2" d="M356.554,-149.885C344.22,-140.881 328.849,-129.66 315.124,-119.64"/>
<polygon fill="grey" stroke="grey" points="316.973,-116.657 306.832,-113.587 312.845,-122.31 316.973,-116.657"/>
</g>
<!-- 6&#45;&gt;36 -->
<g id="edge62" class="edge"><title>6&#45;&gt;36</title>
<path fill="none" stroke="grey" stroke-width="2" d="M399.433,-149.7C409.189,-141.015 421.223,-130.301 432.122,-120.598"/>
<polygon fill="grey" stroke="grey" points="434.668,-123.018 439.81,-113.755 430.013,-117.79 434.668,-123.018"/>
</g>
<!-- 6&#45;&gt;37 -->
<g id="edge64" class="edge"><title>6&#45;&gt;37</title>
<path fill="none" stroke="grey" stroke-width="2" d="M407.448,-159.049C442.548,-148.881 504.776,-130.855 554.836,-116.353"/>
<polygon fill="grey" stroke="grey" points="556.042,-119.648 564.674,-113.503 554.095,-112.924 556.042,-119.648"/>
</g>
<!-- 7&#45;&gt;0 -->
<g id="edge2" class="edge"><title>7&#45;&gt;0</title>
<path fill="none" stroke="grey" stroke-width="2" d="M367.399,-73.2812C370.634,-72.8108 373.842,-72.3807 377,-72 662.088,-37.6355 1590.29,-22.4124 1787.82,-19.5203"/>
<polygon fill="grey" stroke="grey" points="1788.03,-23.0178 1797.97,-19.3731 1787.92,-16.0185 1788.03,-23.0178"/>
</g>
<!-- 8 -->
<g id="node9" class="node"><title>8</title>
<path fill="none" stroke="#d8bc56" stroke-width="2" d="M889.25,-113.5C889.25,-113.5 738.75,-113.5 738.75,-113.5 732.75,-113.5 726.75,-107.5 726.75,-101.5 726.75,-101.5 726.75,-84.5 726.75,-84.5 726.75,-78.5 732.75,-72.5 738.75,-72.5 738.75,-72.5 889.25,-72.5 889.25,-72.5 895.25,-72.5 901.25,-78.5 901.25,-84.5 901.25,-84.5 901.25,-101.5 901.25,-101.5 901.25,-107.5 895.25,-113.5 889.25,-113.5"/>
<text text-anchor="middle" x="814" y="-101.5" font-family="sans" font-size="10.00">extractBedSites</text>
<text text-anchor="middle" x="814" y="-90.5" font-family="sans" font-size="10.00">filter: 100S95F14R.chr1&#45;38.mac2</text>
<text text-anchor="middle" x="814" y="-79.5" font-family="sans" font-size="10.00">species: EthWo</text>
</g>
<!-- 8&#45;&gt;0 -->
<g id="edge3" class="edge"><title>8&#45;&gt;0</title>
<path fill="none" stroke="grey" stroke-width="2" d="M901.284,-73.2461C904.219,-72.7975 907.131,-72.3799 910,-72 1248.74,-27.1532 1663.02,-20.2514 1787.76,-19.1916"/>
<polygon fill="grey" stroke="grey" points="1787.94,-22.6903 1797.92,-19.113 1787.89,-15.6905 1787.94,-22.6903"/>
</g>
<!-- 9 -->
<g id="node10" class="node"><title>9</title>
<path fill="none" stroke="#d85656" stroke-width="2" stroke-dasharray="5,2" d="M1104,-258C1104,-258 1074,-258 1074,-258 1068,-258 1062,-252 1062,-246 1062,-246 1062,-234 1062,-234 1062,-228 1068,-222 1074,-222 1074,-222 1104,-222 1104,-222 1110,-222 1116,-228 1116,-234 1116,-234 1116,-246 1116,-246 1116,-252 1110,-258 1104,-258"/>
<text text-anchor="middle" x="1089" y="-237.5" font-family="sans" font-size="10.00">zip</text>
</g>
<!-- 9&#45;&gt;8 -->
<g id="edge29" class="edge"><title>9&#45;&gt;8</title>
<path fill="none" stroke="grey" stroke-width="2" d="M1061.88,-224.7C1014.93,-199.946 918.016,-148.845 860.256,-118.389"/>
<polygon fill="grey" stroke="grey" points="861.813,-115.254 851.335,-113.686 858.549,-121.446 861.813,-115.254"/>
</g>
<!-- 13 -->
<g id="node14" class="node"><title>13</title>
<path fill="none" stroke="#56d88a" stroke-width="2" stroke-dasharray="5,2" d="M1104,-186C1104,-186 1074,-186 1074,-186 1068,-186 1062,-180 1062,-174 1062,-174 1062,-162 1062,-162 1062,-156 1068,-150 1074,-150 1074,-150 1104,-150 1104,-150 1110,-150 1116,-156 1116,-162 1116,-162 1116,-174 1116,-174 1116,-180 1110,-186 1104,-186"/>
<text text-anchor="middle" x="1089" y="-165.5" font-family="sans" font-size="10.00">tabix</text>
</g>
<!-- 9&#45;&gt;13 -->
<g id="edge34" class="edge"><title>9&#45;&gt;13</title>
<path fill="none" stroke="grey" stroke-width="2" d="M1089,-221.697C1089,-213.983 1089,-204.712 1089,-196.112"/>
<polygon fill="grey" stroke="grey" points="1092.5,-196.104 1089,-186.104 1085.5,-196.104 1092.5,-196.104"/>
</g>
<!-- 14 -->
<g id="node15" class="node"><title>14</title>
<path fill="none" stroke="#d8bc56" stroke-width="2" d="M1082.25,-113.5C1082.25,-113.5 931.75,-113.5 931.75,-113.5 925.75,-113.5 919.75,-107.5 919.75,-101.5 919.75,-101.5 919.75,-84.5 919.75,-84.5 919.75,-78.5 925.75,-72.5 931.75,-72.5 931.75,-72.5 1082.25,-72.5 1082.25,-72.5 1088.25,-72.5 1094.25,-78.5 1094.25,-84.5 1094.25,-84.5 1094.25,-101.5 1094.25,-101.5 1094.25,-107.5 1088.25,-113.5 1082.25,-113.5"/>
<text text-anchor="middle" x="1007" y="-101.5" font-family="sans" font-size="10.00">extractBedSites</text>
<text text-anchor="middle" x="1007" y="-90.5" font-family="sans" font-size="10.00">filter: 100S95F14R.chr1&#45;38.mac1</text>
<text text-anchor="middle" x="1007" y="-79.5" font-family="sans" font-size="10.00">species: EthWo</text>
</g>
<!-- 9&#45;&gt;14 -->
<g id="edge35" class="edge"><title>9&#45;&gt;14</title>
<path fill="none" stroke="grey" stroke-width="2" d="M1076.4,-221.713C1069.2,-211.533 1060.2,-198.283 1053,-186 1040.98,-165.497 1029.03,-141.449 1020.32,-123.082"/>
<polygon fill="grey" stroke="grey" points="1023.37,-121.349 1015.96,-113.783 1017.04,-124.323 1023.37,-121.349"/>
</g>
<!-- 38 -->
<g id="node39" class="node"><title>38</title>
<path fill="none" stroke="#d8bc56" stroke-width="2" d="M1253,-113.5C1253,-113.5 1125,-113.5 1125,-113.5 1119,-113.5 1113,-107.5 1113,-101.5 1113,-101.5 1113,-84.5 1113,-84.5 1113,-78.5 1119,-72.5 1125,-72.5 1125,-72.5 1253,-72.5 1253,-72.5 1259,-72.5 1265,-78.5 1265,-84.5 1265,-84.5 1265,-101.5 1265,-101.5 1265,-107.5 1259,-113.5 1253,-113.5"/>
<text text-anchor="middle" x="1189" y="-101.5" font-family="sans" font-size="10.00">extractBedSites</text>
<text text-anchor="middle" x="1189" y="-90.5" font-family="sans" font-size="10.00">filter: 74Females.chrX.mac2</text>
<text text-anchor="middle" x="1189" y="-79.5" font-family="sans" font-size="10.00">species: EthWo</text>
</g>
<!-- 9&#45;&gt;38 -->
<g id="edge65" class="edge"><title>9&#45;&gt;38</title>
<path fill="none" stroke="grey" stroke-width="2" d="M1100.86,-221.797C1117.82,-197.217 1149.17,-151.759 1169.54,-122.212"/>
<polygon fill="grey" stroke="grey" points="1172.44,-124.181 1175.23,-113.962 1166.67,-120.207 1172.44,-124.181"/>
</g>
<!-- 39 -->
<g id="node40" class="node"><title>39</title>
<path fill="none" stroke="#d8bc56" stroke-width="2" d="M1423,-113.5C1423,-113.5 1295,-113.5 1295,-113.5 1289,-113.5 1283,-107.5 1283,-101.5 1283,-101.5 1283,-84.5 1283,-84.5 1283,-78.5 1289,-72.5 1295,-72.5 1295,-72.5 1423,-72.5 1423,-72.5 1429,-72.5 1435,-78.5 1435,-84.5 1435,-84.5 1435,-101.5 1435,-101.5 1435,-107.5 1429,-113.5 1423,-113.5"/>
<text text-anchor="middle" x="1359" y="-101.5" font-family="sans" font-size="10.00">extractBedSites</text>
<text text-anchor="middle" x="1359" y="-90.5" font-family="sans" font-size="10.00">filter: 74Females.chrX.mac1</text>
<text text-anchor="middle" x="1359" y="-79.5" font-family="sans" font-size="10.00">species: EthWo</text>
</g>
<!-- 9&#45;&gt;39 -->
<g id="edge67" class="edge"><title>9&#45;&gt;39</title>
<path fill="none" stroke="grey" stroke-width="2" d="M1116.12,-224.433C1162.36,-199.602 1256.91,-148.827 1313.43,-118.471"/>
<polygon fill="grey" stroke="grey" points="1315.35,-121.414 1322.5,-113.599 1312.04,-115.247 1315.35,-121.414"/>
</g>
<!-- 10 -->
<g id="node11" class="node"><title>10</title>
<path fill="none" stroke="#bed856" stroke-width="2" stroke-dasharray="5,2" d="M1142.25,-330C1142.25,-330 1035.75,-330 1035.75,-330 1029.75,-330 1023.75,-324 1023.75,-318 1023.75,-318 1023.75,-306 1023.75,-306 1023.75,-300 1029.75,-294 1035.75,-294 1035.75,-294 1142.25,-294 1142.25,-294 1148.25,-294 1154.25,-300 1154.25,-306 1154.25,-306 1154.25,-318 1154.25,-318 1154.25,-324 1148.25,-330 1142.25,-330"/>
<text text-anchor="middle" x="1089" y="-309.5" font-family="sans" font-size="10.00">AllsitesGenotypeGVCFs</text>
</g>
<!-- 10&#45;&gt;9 -->
<g id="edge31" class="edge"><title>10&#45;&gt;9</title>
<path fill="none" stroke="grey" stroke-width="2" d="M1089,-293.697C1089,-285.983 1089,-276.712 1089,-268.112"/>
<polygon fill="grey" stroke="grey" points="1092.5,-268.104 1089,-258.104 1085.5,-268.104 1092.5,-268.104"/>
</g>
<!-- 11 -->
<g id="node12" class="node"><title>11</title>
<path fill="none" stroke="#568ad8" stroke-width="2" stroke-dasharray="5,2" d="M1121,-402C1121,-402 1057,-402 1057,-402 1051,-402 1045,-396 1045,-390 1045,-390 1045,-378 1045,-378 1045,-372 1051,-366 1057,-366 1057,-366 1121,-366 1121,-366 1127,-366 1133,-372 1133,-378 1133,-378 1133,-390 1133,-390 1133,-396 1127,-402 1121,-402"/>
<text text-anchor="middle" x="1089" y="-381.5" font-family="sans" font-size="10.00">makeGVCFList</text>
</g>
<!-- 11&#45;&gt;10 -->
<g id="edge32" class="edge"><title>11&#45;&gt;10</title>
<path fill="none" stroke="grey" stroke-width="2" d="M1089,-365.697C1089,-357.983 1089,-348.712 1089,-340.112"/>
<polygon fill="grey" stroke="grey" points="1092.5,-340.104 1089,-330.104 1085.5,-340.104 1092.5,-340.104"/>
</g>
<!-- 12 -->
<g id="node13" class="node"><title>12</title>
<path fill="none" stroke="#56c1d8" stroke-width="2" stroke-dasharray="5,2" d="M1126,-474C1126,-474 1052,-474 1052,-474 1046,-474 1040,-468 1040,-462 1040,-462 1040,-450 1040,-450 1040,-444 1046,-438 1052,-438 1052,-438 1126,-438 1126,-438 1132,-438 1138,-444 1138,-450 1138,-450 1138,-462 1138,-462 1138,-468 1132,-474 1126,-474"/>
<text text-anchor="middle" x="1089" y="-459" font-family="sans" font-size="10.00">haplotype_caller</text>
<text text-anchor="middle" x="1089" y="-448" font-family="sans" font-size="10.00">prefix: EthWo</text>
</g>
<!-- 12&#45;&gt;11 -->
<g id="edge33" class="edge"><title>12&#45;&gt;11</title>
<path fill="none" stroke="grey" stroke-width="2" d="M1089,-437.697C1089,-429.983 1089,-420.712 1089,-412.112"/>
<polygon fill="grey" stroke="grey" points="1092.5,-412.104 1089,-402.104 1085.5,-412.104 1092.5,-412.104"/>
</g>
<!-- 13&#45;&gt;8 -->
<g id="edge30" class="edge"><title>13&#45;&gt;8</title>
<path fill="none" stroke="grey" stroke-width="2" d="M1061.88,-159.801C1024.04,-149.757 953.747,-131.096 897.652,-116.206"/>
<polygon fill="grey" stroke="grey" points="898.275,-112.75 887.712,-113.567 896.479,-119.516 898.275,-112.75"/>
</g>
<!-- 13&#45;&gt;14 -->
<g id="edge36" class="edge"><title>13&#45;&gt;14</title>
<path fill="none" stroke="grey" stroke-width="2" d="M1069.57,-149.7C1059.81,-141.015 1047.78,-130.301 1036.88,-120.598"/>
<polygon fill="grey" stroke="grey" points="1038.99,-117.79 1029.19,-113.755 1034.33,-123.018 1038.99,-117.79"/>
</g>
<!-- 13&#45;&gt;38 -->
<g id="edge66" class="edge"><title>13&#45;&gt;38</title>
<path fill="none" stroke="grey" stroke-width="2" d="M1112.45,-149.885C1124.78,-140.881 1140.15,-129.66 1153.88,-119.64"/>
<polygon fill="grey" stroke="grey" points="1156.15,-122.31 1162.17,-113.587 1152.03,-116.657 1156.15,-122.31"/>
</g>
<!-- 13&#45;&gt;39 -->
<g id="edge68" class="edge"><title>13&#45;&gt;39</title>
<path fill="none" stroke="grey" stroke-width="2" d="M1116.12,-159.666C1153.4,-149.587 1222.09,-131.018 1276.92,-116.191"/>
<polygon fill="grey" stroke="grey" points="1277.9,-119.552 1286.64,-113.563 1276.08,-112.795 1277.9,-119.552"/>
</g>
<!-- 14&#45;&gt;0 -->
<g id="edge4" class="edge"><title>14&#45;&gt;0</title>
<path fill="none" stroke="grey" stroke-width="2" d="M1094.42,-73.431C1097.65,-72.9185 1100.85,-72.4387 1104,-72 1363.9,-35.8101 1680.17,-23.3821 1787.4,-20.0417"/>
<polygon fill="grey" stroke="grey" points="1787.8,-23.5311 1797.69,-19.7291 1787.59,-16.5343 1787.8,-23.5311"/>
</g>
<!-- 15 -->
<g id="node16" class="node"><title>15</title>
<path fill="none" stroke="#d8bc56" stroke-width="2" d="M1616.25,-113.5C1616.25,-113.5 1465.75,-113.5 1465.75,-113.5 1459.75,-113.5 1453.75,-107.5 1453.75,-101.5 1453.75,-101.5 1453.75,-84.5 1453.75,-84.5 1453.75,-78.5 1459.75,-72.5 1465.75,-72.5 1465.75,-72.5 1616.25,-72.5 1616.25,-72.5 1622.25,-72.5 1628.25,-78.5 1628.25,-84.5 1628.25,-84.5 1628.25,-101.5 1628.25,-101.5 1628.25,-107.5 1622.25,-113.5 1616.25,-113.5"/>
<text text-anchor="middle" x="1541" y="-101.5" font-family="sans" font-size="10.00">extractBedSites</text>
<text text-anchor="middle" x="1541" y="-90.5" font-family="sans" font-size="10.00">filter: 100S95F14R.chr1&#45;38.mac2</text>
<text text-anchor="middle" x="1541" y="-79.5" font-family="sans" font-size="10.00">species: Dhole</text>
</g>
<!-- 15&#45;&gt;0 -->
<g id="edge5" class="edge"><title>15&#45;&gt;0</title>
<path fill="none" stroke="grey" stroke-width="2" d="M1617.11,-72.4373C1672.48,-58.2054 1745.02,-39.559 1788.14,-28.4743"/>
<polygon fill="grey" stroke="grey" points="1789.11,-31.8397 1797.92,-25.9603 1787.37,-25.06 1789.11,-31.8397"/>
</g>
<!-- 16 -->
<g id="node17" class="node"><title>16</title>
<path fill="none" stroke="#d85656" stroke-width="2" stroke-dasharray="5,2" d="M1858,-258C1858,-258 1828,-258 1828,-258 1822,-258 1816,-252 1816,-246 1816,-246 1816,-234 1816,-234 1816,-228 1822,-222 1828,-222 1828,-222 1858,-222 1858,-222 1864,-222 1870,-228 1870,-234 1870,-234 1870,-246 1870,-246 1870,-252 1864,-258 1858,-258"/>
<text text-anchor="middle" x="1843" y="-237.5" font-family="sans" font-size="10.00">zip</text>
</g>
<!-- 16&#45;&gt;15 -->
<g id="edge37" class="edge"><title>16&#45;&gt;15</title>
<path fill="none" stroke="grey" stroke-width="2" d="M1815.93,-226.005C1765.22,-201.656 1655.22,-148.84 1590.79,-117.904"/>
<polygon fill="grey" stroke="grey" points="1592.15,-114.677 1581.62,-113.504 1589.12,-120.988 1592.15,-114.677"/>
</g>
<!-- 20 -->
<g id="node21" class="node"><title>20</title>
<path fill="none" stroke="#56d88a" stroke-width="2" stroke-dasharray="5,2" d="M1858,-186C1858,-186 1828,-186 1828,-186 1822,-186 1816,-180 1816,-174 1816,-174 1816,-162 1816,-162 1816,-156 1822,-150 1828,-150 1828,-150 1858,-150 1858,-150 1864,-150 1870,-156 1870,-162 1870,-162 1870,-174 1870,-174 1870,-180 1864,-186 1858,-186"/>
<text text-anchor="middle" x="1843" y="-165.5" font-family="sans" font-size="10.00">tabix</text>
</g>
<!-- 16&#45;&gt;20 -->
<g id="edge42" class="edge"><title>16&#45;&gt;20</title>
<path fill="none" stroke="grey" stroke-width="2" d="M1843,-221.697C1843,-213.983 1843,-204.712 1843,-196.112"/>
<polygon fill="grey" stroke="grey" points="1846.5,-196.104 1843,-186.104 1839.5,-196.104 1846.5,-196.104"/>
</g>
<!-- 21 -->
<g id="node22" class="node"><title>21</title>
<path fill="none" stroke="#d8bc56" stroke-width="2" d="M1809.25,-113.5C1809.25,-113.5 1658.75,-113.5 1658.75,-113.5 1652.75,-113.5 1646.75,-107.5 1646.75,-101.5 1646.75,-101.5 1646.75,-84.5 1646.75,-84.5 1646.75,-78.5 1652.75,-72.5 1658.75,-72.5 1658.75,-72.5 1809.25,-72.5 1809.25,-72.5 1815.25,-72.5 1821.25,-78.5 1821.25,-84.5 1821.25,-84.5 1821.25,-101.5 1821.25,-101.5 1821.25,-107.5 1815.25,-113.5 1809.25,-113.5"/>
<text text-anchor="middle" x="1734" y="-101.5" font-family="sans" font-size="10.00">extractBedSites</text>
<text text-anchor="middle" x="1734" y="-90.5" font-family="sans" font-size="10.00">filter: 100S95F14R.chr1&#45;38.mac1</text>
<text text-anchor="middle" x="1734" y="-79.5" font-family="sans" font-size="10.00">species: Dhole</text>
</g>
<!-- 16&#45;&gt;21 -->
<g id="edge43" class="edge"><title>16&#45;&gt;21</title>
<path fill="none" stroke="grey" stroke-width="2" d="M1830.07,-221.797C1811.59,-197.217 1777.42,-151.759 1755.21,-122.212"/>
<polygon fill="grey" stroke="grey" points="1757.81,-119.852 1749.01,-113.962 1752.22,-124.058 1757.81,-119.852"/>
</g>
<!-- 40 -->
<g id="node41" class="node"><title>40</title>
<path fill="none" stroke="#d8bc56" stroke-width="2" d="M1980,-113.5C1980,-113.5 1852,-113.5 1852,-113.5 1846,-113.5 1840,-107.5 1840,-101.5 1840,-101.5 1840,-84.5 1840,-84.5 1840,-78.5 1846,-72.5 1852,-72.5 1852,-72.5 1980,-72.5 1980,-72.5 1986,-72.5 1992,-78.5 1992,-84.5 1992,-84.5 1992,-101.5 1992,-101.5 1992,-107.5 1986,-113.5 1980,-113.5"/>
<text text-anchor="middle" x="1916" y="-101.5" font-family="sans" font-size="10.00">extractBedSites</text>
<text text-anchor="middle" x="1916" y="-90.5" font-family="sans" font-size="10.00">filter: 74Females.chrX.mac2</text>
<text text-anchor="middle" x="1916" y="-79.5" font-family="sans" font-size="10.00">species: Dhole</text>
</g>
<!-- 16&#45;&gt;40 -->
<g id="edge69" class="edge"><title>16&#45;&gt;40</title>
<path fill="none" stroke="grey" stroke-width="2" d="M1855.98,-221.924C1863.31,-211.816 1872.31,-198.566 1879,-186 1889.79,-165.745 1899.38,-141.637 1906.09,-123.181"/>
<polygon fill="grey" stroke="grey" points="1909.45,-124.165 1909.51,-113.57 1902.86,-121.818 1909.45,-124.165"/>
</g>
<!-- 41 -->
<g id="node42" class="node"><title>41</title>
<path fill="none" stroke="#d8bc56" stroke-width="2" d="M2150,-113.5C2150,-113.5 2022,-113.5 2022,-113.5 2016,-113.5 2010,-107.5 2010,-101.5 2010,-101.5 2010,-84.5 2010,-84.5 2010,-78.5 2016,-72.5 2022,-72.5 2022,-72.5 2150,-72.5 2150,-72.5 2156,-72.5 2162,-78.5 2162,-84.5 2162,-84.5 2162,-101.5 2162,-101.5 2162,-107.5 2156,-113.5 2150,-113.5"/>
<text text-anchor="middle" x="2086" y="-101.5" font-family="sans" font-size="10.00">extractBedSites</text>
<text text-anchor="middle" x="2086" y="-90.5" font-family="sans" font-size="10.00">filter: 74Females.chrX.mac1</text>
<text text-anchor="middle" x="2086" y="-79.5" font-family="sans" font-size="10.00">species: Dhole</text>
</g>
<!-- 16&#45;&gt;41 -->
<g id="edge71" class="edge"><title>16&#45;&gt;41</title>
<path fill="none" stroke="grey" stroke-width="2" d="M1870.4,-222.649C1912.91,-197.286 1995,-148.301 2044.71,-118.638"/>
<polygon fill="grey" stroke="grey" points="2046.5,-121.643 2053.3,-113.514 2042.92,-115.632 2046.5,-121.643"/>
</g>
<!-- 17 -->
<g id="node18" class="node"><title>17</title>
<path fill="none" stroke="#bed856" stroke-width="2" stroke-dasharray="5,2" d="M1896.25,-330C1896.25,-330 1789.75,-330 1789.75,-330 1783.75,-330 1777.75,-324 1777.75,-318 1777.75,-318 1777.75,-306 1777.75,-306 1777.75,-300 1783.75,-294 1789.75,-294 1789.75,-294 1896.25,-294 1896.25,-294 1902.25,-294 1908.25,-300 1908.25,-306 1908.25,-306 1908.25,-318 1908.25,-318 1908.25,-324 1902.25,-330 1896.25,-330"/>
<text text-anchor="middle" x="1843" y="-309.5" font-family="sans" font-size="10.00">AllsitesGenotypeGVCFs</text>
</g>
<!-- 17&#45;&gt;16 -->
<g id="edge39" class="edge"><title>17&#45;&gt;16</title>
<path fill="none" stroke="grey" stroke-width="2" d="M1843,-293.697C1843,-285.983 1843,-276.712 1843,-268.112"/>
<polygon fill="grey" stroke="grey" points="1846.5,-268.104 1843,-258.104 1839.5,-268.104 1846.5,-268.104"/>
</g>
<!-- 18 -->
<g id="node19" class="node"><title>18</title>
<path fill="none" stroke="#568ad8" stroke-width="2" stroke-dasharray="5,2" d="M1875,-402C1875,-402 1811,-402 1811,-402 1805,-402 1799,-396 1799,-390 1799,-390 1799,-378 1799,-378 1799,-372 1805,-366 1811,-366 1811,-366 1875,-366 1875,-366 1881,-366 1887,-372 1887,-378 1887,-378 1887,-390 1887,-390 1887,-396 1881,-402 1875,-402"/>
<text text-anchor="middle" x="1843" y="-381.5" font-family="sans" font-size="10.00">makeGVCFList</text>
</g>
<!-- 18&#45;&gt;17 -->
<g id="edge40" class="edge"><title>18&#45;&gt;17</title>
<path fill="none" stroke="grey" stroke-width="2" d="M1843,-365.697C1843,-357.983 1843,-348.712 1843,-340.112"/>
<polygon fill="grey" stroke="grey" points="1846.5,-340.104 1843,-330.104 1839.5,-340.104 1846.5,-340.104"/>
</g>
<!-- 19 -->
<g id="node20" class="node"><title>19</title>
<path fill="none" stroke="#56c1d8" stroke-width="2" stroke-dasharray="5,2" d="M1880,-474C1880,-474 1806,-474 1806,-474 1800,-474 1794,-468 1794,-462 1794,-462 1794,-450 1794,-450 1794,-444 1800,-438 1806,-438 1806,-438 1880,-438 1880,-438 1886,-438 1892,-444 1892,-450 1892,-450 1892,-462 1892,-462 1892,-468 1886,-474 1880,-474"/>
<text text-anchor="middle" x="1843" y="-459" font-family="sans" font-size="10.00">haplotype_caller</text>
<text text-anchor="middle" x="1843" y="-448" font-family="sans" font-size="10.00">prefix: Dhole</text>
</g>
<!-- 19&#45;&gt;18 -->
<g id="edge41" class="edge"><title>19&#45;&gt;18</title>
<path fill="none" stroke="grey" stroke-width="2" d="M1843,-437.697C1843,-429.983 1843,-420.712 1843,-412.112"/>
<polygon fill="grey" stroke="grey" points="1846.5,-412.104 1843,-402.104 1839.5,-412.104 1846.5,-412.104"/>
</g>
<!-- 20&#45;&gt;15 -->
<g id="edge38" class="edge"><title>20&#45;&gt;15</title>
<path fill="none" stroke="grey" stroke-width="2" d="M1815.93,-160.457C1774.84,-150.525 1694.83,-131.183 1631.67,-115.916"/>
<polygon fill="grey" stroke="grey" points="1632.22,-112.45 1621.68,-113.503 1630.58,-119.254 1632.22,-112.45"/>
</g>
<!-- 20&#45;&gt;21 -->
<g id="edge44" class="edge"><title>20&#45;&gt;21</title>
<path fill="none" stroke="grey" stroke-width="2" d="M1817.44,-149.885C1803.87,-140.796 1786.93,-129.448 1771.86,-119.357"/>
<polygon fill="grey" stroke="grey" points="1773.5,-116.244 1763.25,-113.587 1769.61,-122.06 1773.5,-116.244"/>
</g>
<!-- 20&#45;&gt;40 -->
<g id="edge70" class="edge"><title>20&#45;&gt;40</title>
<path fill="none" stroke="grey" stroke-width="2" d="M1860.3,-149.7C1868.9,-141.099 1879.49,-130.509 1889.12,-120.881"/>
<polygon fill="grey" stroke="grey" points="1891.65,-123.301 1896.25,-113.755 1886.7,-118.351 1891.65,-123.301"/>
</g>
<!-- 20&#45;&gt;41 -->
<g id="edge72" class="edge"><title>20&#45;&gt;41</title>
<path fill="none" stroke="grey" stroke-width="2" d="M1870.4,-158.768C1904.31,-148.582 1963.41,-130.827 2011.17,-116.48"/>
<polygon fill="grey" stroke="grey" points="2012.3,-119.796 2020.87,-113.567 2010.28,-113.092 2012.3,-119.796"/>
</g>
<!-- 21&#45;&gt;0 -->
<g id="edge6" class="edge"><title>21&#45;&gt;0</title>
<path fill="none" stroke="grey" stroke-width="2" d="M1758.39,-72.4373C1769.85,-63.241 1783.61,-52.2015 1795.64,-42.55"/>
<polygon fill="grey" stroke="grey" points="1798.04,-45.1172 1803.65,-36.1297 1793.66,-39.657 1798.04,-45.1172"/>
</g>
<!-- 22 -->
<g id="node23" class="node"><title>22</title>
<path fill="none" stroke="#d8bc56" stroke-width="2" d="M2343.25,-113.5C2343.25,-113.5 2192.75,-113.5 2192.75,-113.5 2186.75,-113.5 2180.75,-107.5 2180.75,-101.5 2180.75,-101.5 2180.75,-84.5 2180.75,-84.5 2180.75,-78.5 2186.75,-72.5 2192.75,-72.5 2192.75,-72.5 2343.25,-72.5 2343.25,-72.5 2349.25,-72.5 2355.25,-78.5 2355.25,-84.5 2355.25,-84.5 2355.25,-101.5 2355.25,-101.5 2355.25,-107.5 2349.25,-113.5 2343.25,-113.5"/>
<text text-anchor="middle" x="2268" y="-101.5" font-family="sans" font-size="10.00">extractBedSites</text>
<text text-anchor="middle" x="2268" y="-90.5" font-family="sans" font-size="10.00">filter: 100S95F14R.chr1&#45;38.mac2</text>
<text text-anchor="middle" x="2268" y="-79.5" font-family="sans" font-size="10.00">species: BlBJa</text>
</g>
<!-- 22&#45;&gt;0 -->
<g id="edge7" class="edge"><title>22&#45;&gt;0</title>
<path fill="none" stroke="grey" stroke-width="2" d="M2180.53,-73.7499C2177.32,-73.1476 2174.13,-72.5622 2171,-72 2059.1,-51.9068 1925.96,-32.8762 1862.39,-24.0862"/>
<polygon fill="grey" stroke="grey" points="1862.82,-20.6124 1852.44,-22.715 1861.87,-27.547 1862.82,-20.6124"/>
</g>
<!-- 23 -->
<g id="node24" class="node"><title>23</title>
<path fill="none" stroke="#d85656" stroke-width="2" stroke-dasharray="5,2" d="M2576,-258C2576,-258 2546,-258 2546,-258 2540,-258 2534,-252 2534,-246 2534,-246 2534,-234 2534,-234 2534,-228 2540,-222 2546,-222 2546,-222 2576,-222 2576,-222 2582,-222 2588,-228 2588,-234 2588,-234 2588,-246 2588,-246 2588,-252 2582,-258 2576,-258"/>
<text text-anchor="middle" x="2561" y="-237.5" font-family="sans" font-size="10.00">zip</text>
</g>
<!-- 23&#45;&gt;22 -->
<g id="edge45" class="edge"><title>23&#45;&gt;22</title>
<path fill="none" stroke="grey" stroke-width="2" d="M2533.96,-225.619C2484.64,-201.212 2379.43,-149.146 2317.14,-118.317"/>
<polygon fill="grey" stroke="grey" points="2318.41,-115.043 2307.9,-113.744 2315.31,-121.316 2318.41,-115.043"/>
</g>
<!-- 27 -->
<g id="node28" class="node"><title>27</title>
<path fill="none" stroke="#56d88a" stroke-width="2" stroke-dasharray="5,2" d="M2576,-186C2576,-186 2546,-186 2546,-186 2540,-186 2534,-180 2534,-174 2534,-174 2534,-162 2534,-162 2534,-156 2540,-150 2546,-150 2546,-150 2576,-150 2576,-150 2582,-150 2588,-156 2588,-162 2588,-162 2588,-174 2588,-174 2588,-180 2582,-186 2576,-186"/>
<text text-anchor="middle" x="2561" y="-165.5" font-family="sans" font-size="10.00">tabix</text>
</g>
<!-- 23&#45;&gt;27 -->
<g id="edge50" class="edge"><title>23&#45;&gt;27</title>
<path fill="none" stroke="grey" stroke-width="2" d="M2561,-221.697C2561,-213.983 2561,-204.712 2561,-196.112"/>
<polygon fill="grey" stroke="grey" points="2564.5,-196.104 2561,-186.104 2557.5,-196.104 2564.5,-196.104"/>
</g>
<!-- 28 -->
<g id="node29" class="node"><title>28</title>
<path fill="none" stroke="#d8bc56" stroke-width="2" d="M2536.25,-113.5C2536.25,-113.5 2385.75,-113.5 2385.75,-113.5 2379.75,-113.5 2373.75,-107.5 2373.75,-101.5 2373.75,-101.5 2373.75,-84.5 2373.75,-84.5 2373.75,-78.5 2379.75,-72.5 2385.75,-72.5 2385.75,-72.5 2536.25,-72.5 2536.25,-72.5 2542.25,-72.5 2548.25,-78.5 2548.25,-84.5 2548.25,-84.5 2548.25,-101.5 2548.25,-101.5 2548.25,-107.5 2542.25,-113.5 2536.25,-113.5"/>
<text text-anchor="middle" x="2461" y="-101.5" font-family="sans" font-size="10.00">extractBedSites</text>
<text text-anchor="middle" x="2461" y="-90.5" font-family="sans" font-size="10.00">filter: 100S95F14R.chr1&#45;38.mac1</text>
<text text-anchor="middle" x="2461" y="-79.5" font-family="sans" font-size="10.00">species: BlBJa</text>
</g>
<!-- 23&#45;&gt;28 -->
<g id="edge51" class="edge"><title>23&#45;&gt;28</title>
<path fill="none" stroke="grey" stroke-width="2" d="M2549.14,-221.797C2532.18,-197.217 2500.83,-151.759 2480.46,-122.212"/>
<polygon fill="grey" stroke="grey" points="2483.33,-120.207 2474.77,-113.962 2477.56,-124.181 2483.33,-120.207"/>
</g>
<!-- 42 -->
<g id="node43" class="node"><title>42</title>
<path fill="none" stroke="#d8bc56" stroke-width="2" d="M2707,-113.5C2707,-113.5 2579,-113.5 2579,-113.5 2573,-113.5 2567,-107.5 2567,-101.5 2567,-101.5 2567,-84.5 2567,-84.5 2567,-78.5 2573,-72.5 2579,-72.5 2579,-72.5 2707,-72.5 2707,-72.5 2713,-72.5 2719,-78.5 2719,-84.5 2719,-84.5 2719,-101.5 2719,-101.5 2719,-107.5 2713,-113.5 2707,-113.5"/>
<text text-anchor="middle" x="2643" y="-101.5" font-family="sans" font-size="10.00">extractBedSites</text>
<text text-anchor="middle" x="2643" y="-90.5" font-family="sans" font-size="10.00">filter: 74Females.chrX.mac2</text>
<text text-anchor="middle" x="2643" y="-79.5" font-family="sans" font-size="10.00">species: BlBJa</text>
</g>
<!-- 23&#45;&gt;42 -->
<g id="edge73" class="edge"><title>23&#45;&gt;42</title>
<path fill="none" stroke="grey" stroke-width="2" d="M2573.6,-221.713C2580.8,-211.533 2589.8,-198.283 2597,-186 2609.02,-165.497 2620.97,-141.449 2629.68,-123.082"/>
<polygon fill="grey" stroke="grey" points="2632.96,-124.323 2634.04,-113.783 2626.63,-121.349 2632.96,-124.323"/>
</g>
<!-- 43 -->
<g id="node44" class="node"><title>43</title>
<path fill="none" stroke="#d8bc56" stroke-width="2" d="M2877,-113.5C2877,-113.5 2749,-113.5 2749,-113.5 2743,-113.5 2737,-107.5 2737,-101.5 2737,-101.5 2737,-84.5 2737,-84.5 2737,-78.5 2743,-72.5 2749,-72.5 2749,-72.5 2877,-72.5 2877,-72.5 2883,-72.5 2889,-78.5 2889,-84.5 2889,-84.5 2889,-101.5 2889,-101.5 2889,-107.5 2883,-113.5 2877,-113.5"/>
<text text-anchor="middle" x="2813" y="-101.5" font-family="sans" font-size="10.00">extractBedSites</text>
<text text-anchor="middle" x="2813" y="-90.5" font-family="sans" font-size="10.00">filter: 74Females.chrX.mac1</text>
<text text-anchor="middle" x="2813" y="-79.5" font-family="sans" font-size="10.00">species: BlBJa</text>
</g>
<!-- 23&#45;&gt;43 -->
<g id="edge75" class="edge"><title>23&#45;&gt;43</title>
<path fill="none" stroke="grey" stroke-width="2" d="M2588.45,-223.206C2632.13,-198.071 2717.83,-148.76 2769.8,-118.856"/>
<polygon fill="grey" stroke="grey" points="2771.86,-121.71 2778.78,-113.689 2768.37,-115.643 2771.86,-121.71"/>
</g>
<!-- 24 -->
<g id="node25" class="node"><title>24</title>
<path fill="none" stroke="#bed856" stroke-width="2" stroke-dasharray="5,2" d="M2614.25,-330C2614.25,-330 2507.75,-330 2507.75,-330 2501.75,-330 2495.75,-324 2495.75,-318 2495.75,-318 2495.75,-306 2495.75,-306 2495.75,-300 2501.75,-294 2507.75,-294 2507.75,-294 2614.25,-294 2614.25,-294 2620.25,-294 2626.25,-300 2626.25,-306 2626.25,-306 2626.25,-318 2626.25,-318 2626.25,-324 2620.25,-330 2614.25,-330"/>
<text text-anchor="middle" x="2561" y="-309.5" font-family="sans" font-size="10.00">AllsitesGenotypeGVCFs</text>
</g>
<!-- 24&#45;&gt;23 -->
<g id="edge47" class="edge"><title>24&#45;&gt;23</title>
<path fill="none" stroke="grey" stroke-width="2" d="M2561,-293.697C2561,-285.983 2561,-276.712 2561,-268.112"/>
<polygon fill="grey" stroke="grey" points="2564.5,-268.104 2561,-258.104 2557.5,-268.104 2564.5,-268.104"/>
</g>
<!-- 25 -->
<g id="node26" class="node"><title>25</title>
<path fill="none" stroke="#568ad8" stroke-width="2" stroke-dasharray="5,2" d="M2593,-402C2593,-402 2529,-402 2529,-402 2523,-402 2517,-396 2517,-390 2517,-390 2517,-378 2517,-378 2517,-372 2523,-366 2529,-366 2529,-366 2593,-366 2593,-366 2599,-366 2605,-372 2605,-378 2605,-378 2605,-390 2605,-390 2605,-396 2599,-402 2593,-402"/>
<text text-anchor="middle" x="2561" y="-381.5" font-family="sans" font-size="10.00">makeGVCFList</text>
</g>
<!-- 25&#45;&gt;24 -->
<g id="edge48" class="edge"><title>25&#45;&gt;24</title>
<path fill="none" stroke="grey" stroke-width="2" d="M2561,-365.697C2561,-357.983 2561,-348.712 2561,-340.112"/>
<polygon fill="grey" stroke="grey" points="2564.5,-340.104 2561,-330.104 2557.5,-340.104 2564.5,-340.104"/>
</g>
<!-- 26 -->
<g id="node27" class="node"><title>26</title>
<path fill="none" stroke="#56c1d8" stroke-width="2" stroke-dasharray="5,2" d="M2598,-474C2598,-474 2524,-474 2524,-474 2518,-474 2512,-468 2512,-462 2512,-462 2512,-450 2512,-450 2512,-444 2518,-438 2524,-438 2524,-438 2598,-438 2598,-438 2604,-438 2610,-444 2610,-450 2610,-450 2610,-462 2610,-462 2610,-468 2604,-474 2598,-474"/>
<text text-anchor="middle" x="2561" y="-459" font-family="sans" font-size="10.00">haplotype_caller</text>
<text text-anchor="middle" x="2561" y="-448" font-family="sans" font-size="10.00">prefix: BlBJa</text>
</g>
<!-- 26&#45;&gt;25 -->
<g id="edge49" class="edge"><title>26&#45;&gt;25</title>
<path fill="none" stroke="grey" stroke-width="2" d="M2561,-437.697C2561,-429.983 2561,-420.712 2561,-412.112"/>
<polygon fill="grey" stroke="grey" points="2564.5,-412.104 2561,-402.104 2557.5,-412.104 2564.5,-412.104"/>
</g>
<!-- 27&#45;&gt;22 -->
<g id="edge46" class="edge"><title>27&#45;&gt;22</title>
<path fill="none" stroke="grey" stroke-width="2" d="M2533.96,-160.263C2493.97,-150.3 2417.23,-131.18 2356.42,-116.03"/>
<polygon fill="grey" stroke="grey" points="2356.97,-112.56 2346.42,-113.539 2355.28,-119.352 2356.97,-112.56"/>
</g>
<!-- 27&#45;&gt;28 -->
<g id="edge52" class="edge"><title>27&#45;&gt;28</title>
<path fill="none" stroke="grey" stroke-width="2" d="M2537.55,-149.885C2525.22,-140.881 2509.85,-129.66 2496.12,-119.64"/>
<polygon fill="grey" stroke="grey" points="2497.97,-116.657 2487.83,-113.587 2493.85,-122.31 2497.97,-116.657"/>
</g>
<!-- 27&#45;&gt;42 -->
<g id="edge74" class="edge"><title>27&#45;&gt;42</title>
<path fill="none" stroke="grey" stroke-width="2" d="M2580.43,-149.7C2590.19,-141.015 2602.22,-130.301 2613.12,-120.598"/>
<polygon fill="grey" stroke="grey" points="2615.67,-123.018 2620.81,-113.755 2611.01,-117.79 2615.67,-123.018"/>
</g>
<!-- 27&#45;&gt;43 -->
<g id="edge76" class="edge"><title>27&#45;&gt;43</title>
<path fill="none" stroke="grey" stroke-width="2" d="M2588.45,-159.049C2623.55,-148.881 2685.78,-130.855 2735.84,-116.353"/>
<polygon fill="grey" stroke="grey" points="2737.04,-119.648 2745.67,-113.503 2735.09,-112.924 2737.04,-119.648"/>
</g>
<!-- 28&#45;&gt;0 -->
<g id="edge8" class="edge"><title>28&#45;&gt;0</title>
<path fill="none" stroke="grey" stroke-width="2" d="M2373.57,-73.5311C2370.34,-72.9904 2367.14,-72.4775 2364,-72 2176.4,-43.5181 1949.64,-27.0065 1862.03,-21.2913"/>
<polygon fill="grey" stroke="grey" points="1862.25,-17.7984 1852.05,-20.6478 1861.8,-24.7839 1862.25,-17.7984"/>
</g>
<!-- 29 -->
<g id="node30" class="node"><title>29</title>
<path fill="none" stroke="#d8bc56" stroke-width="2" d="M3070.25,-113.5C3070.25,-113.5 2919.75,-113.5 2919.75,-113.5 2913.75,-113.5 2907.75,-107.5 2907.75,-101.5 2907.75,-101.5 2907.75,-84.5 2907.75,-84.5 2907.75,-78.5 2913.75,-72.5 2919.75,-72.5 2919.75,-72.5 3070.25,-72.5 3070.25,-72.5 3076.25,-72.5 3082.25,-78.5 3082.25,-84.5 3082.25,-84.5 3082.25,-101.5 3082.25,-101.5 3082.25,-107.5 3076.25,-113.5 3070.25,-113.5"/>
<text text-anchor="middle" x="2995" y="-101.5" font-family="sans" font-size="10.00">extractBedSites</text>
<text text-anchor="middle" x="2995" y="-90.5" font-family="sans" font-size="10.00">filter: 100S95F14R.chr1&#45;38.mac2</text>
<text text-anchor="middle" x="2995" y="-79.5" font-family="sans" font-size="10.00">species: SiSJa</text>
</g>
<!-- 29&#45;&gt;0 -->
<g id="edge9" class="edge"><title>29&#45;&gt;0</title>
<path fill="none" stroke="grey" stroke-width="2" d="M2907.59,-73.3332C2904.36,-72.8482 2901.16,-72.4008 2898,-72 2494.52,-20.749 1999.85,-18.3547 1862.11,-18.7704"/>
<polygon fill="grey" stroke="grey" points="1862.07,-15.2704 1852.09,-18.8078 1862.1,-22.2704 1862.07,-15.2704"/>
</g>
<!-- 30 -->
<g id="node31" class="node"><title>30</title>
<path fill="none" stroke="#d85656" stroke-width="2" stroke-dasharray="5,2" d="M3303,-258C3303,-258 3273,-258 3273,-258 3267,-258 3261,-252 3261,-246 3261,-246 3261,-234 3261,-234 3261,-228 3267,-222 3273,-222 3273,-222 3303,-222 3303,-222 3309,-222 3315,-228 3315,-234 3315,-234 3315,-246 3315,-246 3315,-252 3309,-258 3303,-258"/>
<text text-anchor="middle" x="3288" y="-237.5" font-family="sans" font-size="10.00">zip</text>
</g>
<!-- 30&#45;&gt;29 -->
<g id="edge53" class="edge"><title>30&#45;&gt;29</title>
<path fill="none" stroke="grey" stroke-width="2" d="M3260.96,-225.619C3211.64,-201.212 3106.43,-149.146 3044.14,-118.317"/>
<polygon fill="grey" stroke="grey" points="3045.41,-115.043 3034.9,-113.744 3042.31,-121.316 3045.41,-115.043"/>
</g>
<!-- 34 -->
<g id="node35" class="node"><title>34</title>
<path fill="none" stroke="#56d88a" stroke-width="2" stroke-dasharray="5,2" d="M3303,-186C3303,-186 3273,-186 3273,-186 3267,-186 3261,-180 3261,-174 3261,-174 3261,-162 3261,-162 3261,-156 3267,-150 3273,-150 3273,-150 3303,-150 3303,-150 3309,-150 3315,-156 3315,-162 3315,-162 3315,-174 3315,-174 3315,-180 3309,-186 3303,-186"/>
<text text-anchor="middle" x="3288" y="-165.5" font-family="sans" font-size="10.00">tabix</text>
</g>
<!-- 30&#45;&gt;34 -->
<g id="edge58" class="edge"><title>30&#45;&gt;34</title>
<path fill="none" stroke="grey" stroke-width="2" d="M3288,-221.697C3288,-213.983 3288,-204.712 3288,-196.112"/>
<polygon fill="grey" stroke="grey" points="3291.5,-196.104 3288,-186.104 3284.5,-196.104 3291.5,-196.104"/>
</g>
<!-- 35 -->
<g id="node36" class="node"><title>35</title>
<path fill="none" stroke="#d8bc56" stroke-width="2" d="M3263.25,-113.5C3263.25,-113.5 3112.75,-113.5 3112.75,-113.5 3106.75,-113.5 3100.75,-107.5 3100.75,-101.5 3100.75,-101.5 3100.75,-84.5 3100.75,-84.5 3100.75,-78.5 3106.75,-72.5 3112.75,-72.5 3112.75,-72.5 3263.25,-72.5 3263.25,-72.5 3269.25,-72.5 3275.25,-78.5 3275.25,-84.5 3275.25,-84.5 3275.25,-101.5 3275.25,-101.5 3275.25,-107.5 3269.25,-113.5 3263.25,-113.5"/>
<text text-anchor="middle" x="3188" y="-101.5" font-family="sans" font-size="10.00">extractBedSites</text>
<text text-anchor="middle" x="3188" y="-90.5" font-family="sans" font-size="10.00">filter: 100S95F14R.chr1&#45;38.mac1</text>
<text text-anchor="middle" x="3188" y="-79.5" font-family="sans" font-size="10.00">species: SiSJa</text>
</g>
<!-- 30&#45;&gt;35 -->
<g id="edge59" class="edge"><title>30&#45;&gt;35</title>
<path fill="none" stroke="grey" stroke-width="2" d="M3276.14,-221.797C3259.18,-197.217 3227.83,-151.759 3207.46,-122.212"/>
<polygon fill="grey" stroke="grey" points="3210.33,-120.207 3201.77,-113.962 3204.56,-124.181 3210.33,-120.207"/>
</g>
<!-- 44 -->
<g id="node45" class="node"><title>44</title>
<path fill="none" stroke="#d8bc56" stroke-width="2" d="M3434,-113.5C3434,-113.5 3306,-113.5 3306,-113.5 3300,-113.5 3294,-107.5 3294,-101.5 3294,-101.5 3294,-84.5 3294,-84.5 3294,-78.5 3300,-72.5 3306,-72.5 3306,-72.5 3434,-72.5 3434,-72.5 3440,-72.5 3446,-78.5 3446,-84.5 3446,-84.5 3446,-101.5 3446,-101.5 3446,-107.5 3440,-113.5 3434,-113.5"/>
<text text-anchor="middle" x="3370" y="-101.5" font-family="sans" font-size="10.00">extractBedSites</text>
<text text-anchor="middle" x="3370" y="-90.5" font-family="sans" font-size="10.00">filter: 74Females.chrX.mac2</text>
<text text-anchor="middle" x="3370" y="-79.5" font-family="sans" font-size="10.00">species: SiSJa</text>
</g>
<!-- 30&#45;&gt;44 -->
<g id="edge77" class="edge"><title>30&#45;&gt;44</title>
<path fill="none" stroke="grey" stroke-width="2" d="M3300.6,-221.713C3307.8,-211.533 3316.8,-198.283 3324,-186 3336.02,-165.497 3347.97,-141.449 3356.68,-123.082"/>
<polygon fill="grey" stroke="grey" points="3359.96,-124.323 3361.04,-113.783 3353.63,-121.349 3359.96,-124.323"/>
</g>
<!-- 45 -->
<g id="node46" class="node"><title>45</title>
<path fill="none" stroke="#d8bc56" stroke-width="2" d="M3604,-113.5C3604,-113.5 3476,-113.5 3476,-113.5 3470,-113.5 3464,-107.5 3464,-101.5 3464,-101.5 3464,-84.5 3464,-84.5 3464,-78.5 3470,-72.5 3476,-72.5 3476,-72.5 3604,-72.5 3604,-72.5 3610,-72.5 3616,-78.5 3616,-84.5 3616,-84.5 3616,-101.5 3616,-101.5 3616,-107.5 3610,-113.5 3604,-113.5"/>
<text text-anchor="middle" x="3540" y="-101.5" font-family="sans" font-size="10.00">extractBedSites</text>
<text text-anchor="middle" x="3540" y="-90.5" font-family="sans" font-size="10.00">filter: 74Females.chrX.mac1</text>
<text text-anchor="middle" x="3540" y="-79.5" font-family="sans" font-size="10.00">species: SiSJa</text>
</g>
<!-- 30&#45;&gt;45 -->
<g id="edge79" class="edge"><title>30&#45;&gt;45</title>
<path fill="none" stroke="grey" stroke-width="2" d="M3315.45,-223.206C3359.13,-198.071 3444.83,-148.76 3496.8,-118.856"/>
<polygon fill="grey" stroke="grey" points="3498.86,-121.71 3505.78,-113.689 3495.37,-115.643 3498.86,-121.71"/>
</g>
<!-- 31 -->
<g id="node32" class="node"><title>31</title>
<path fill="none" stroke="#bed856" stroke-width="2" stroke-dasharray="5,2" d="M3341.25,-330C3341.25,-330 3234.75,-330 3234.75,-330 3228.75,-330 3222.75,-324 3222.75,-318 3222.75,-318 3222.75,-306 3222.75,-306 3222.75,-300 3228.75,-294 3234.75,-294 3234.75,-294 3341.25,-294 3341.25,-294 3347.25,-294 3353.25,-300 3353.25,-306 3353.25,-306 3353.25,-318 3353.25,-318 3353.25,-324 3347.25,-330 3341.25,-330"/>
<text text-anchor="middle" x="3288" y="-309.5" font-family="sans" font-size="10.00">AllsitesGenotypeGVCFs</text>
</g>
<!-- 31&#45;&gt;30 -->
<g id="edge55" class="edge"><title>31&#45;&gt;30</title>
<path fill="none" stroke="grey" stroke-width="2" d="M3288,-293.697C3288,-285.983 3288,-276.712 3288,-268.112"/>
<polygon fill="grey" stroke="grey" points="3291.5,-268.104 3288,-258.104 3284.5,-268.104 3291.5,-268.104"/>
</g>
<!-- 32 -->
<g id="node33" class="node"><title>32</title>
<path fill="none" stroke="#568ad8" stroke-width="2" stroke-dasharray="5,2" d="M3320,-402C3320,-402 3256,-402 3256,-402 3250,-402 3244,-396 3244,-390 3244,-390 3244,-378 3244,-378 3244,-372 3250,-366 3256,-366 3256,-366 3320,-366 3320,-366 3326,-366 3332,-372 3332,-378 3332,-378 3332,-390 3332,-390 3332,-396 3326,-402 3320,-402"/>
<text text-anchor="middle" x="3288" y="-381.5" font-family="sans" font-size="10.00">makeGVCFList</text>
</g>
<!-- 32&#45;&gt;31 -->
<g id="edge56" class="edge"><title>32&#45;&gt;31</title>
<path fill="none" stroke="grey" stroke-width="2" d="M3288,-365.697C3288,-357.983 3288,-348.712 3288,-340.112"/>
<polygon fill="grey" stroke="grey" points="3291.5,-340.104 3288,-330.104 3284.5,-340.104 3291.5,-340.104"/>
</g>
<!-- 33 -->
<g id="node34" class="node"><title>33</title>
<path fill="none" stroke="#56c1d8" stroke-width="2" stroke-dasharray="5,2" d="M3325,-474C3325,-474 3251,-474 3251,-474 3245,-474 3239,-468 3239,-462 3239,-462 3239,-450 3239,-450 3239,-444 3245,-438 3251,-438 3251,-438 3325,-438 3325,-438 3331,-438 3337,-444 3337,-450 3337,-450 3337,-462 3337,-462 3337,-468 3331,-474 3325,-474"/>
<text text-anchor="middle" x="3288" y="-459" font-family="sans" font-size="10.00">haplotype_caller</text>
<text text-anchor="middle" x="3288" y="-448" font-family="sans" font-size="10.00">prefix: SiSJa</text>
</g>
<!-- 33&#45;&gt;32 -->
<g id="edge57" class="edge"><title>33&#45;&gt;32</title>
<path fill="none" stroke="grey" stroke-width="2" d="M3288,-437.697C3288,-429.983 3288,-420.712 3288,-412.112"/>
<polygon fill="grey" stroke="grey" points="3291.5,-412.104 3288,-402.104 3284.5,-412.104 3291.5,-412.104"/>
</g>
<!-- 34&#45;&gt;29 -->
<g id="edge54" class="edge"><title>34&#45;&gt;29</title>
<path fill="none" stroke="grey" stroke-width="2" d="M3260.96,-160.263C3220.97,-150.3 3144.23,-131.18 3083.42,-116.03"/>
<polygon fill="grey" stroke="grey" points="3083.97,-112.56 3073.42,-113.539 3082.28,-119.352 3083.97,-112.56"/>
</g>
<!-- 34&#45;&gt;35 -->
<g id="edge60" class="edge"><title>34&#45;&gt;35</title>
<path fill="none" stroke="grey" stroke-width="2" d="M3264.55,-149.885C3252.22,-140.881 3236.85,-129.66 3223.12,-119.64"/>
<polygon fill="grey" stroke="grey" points="3224.97,-116.657 3214.83,-113.587 3220.85,-122.31 3224.97,-116.657"/>
</g>
<!-- 34&#45;&gt;44 -->
<g id="edge78" class="edge"><title>34&#45;&gt;44</title>
<path fill="none" stroke="grey" stroke-width="2" d="M3307.43,-149.7C3317.19,-141.015 3329.22,-130.301 3340.12,-120.598"/>
<polygon fill="grey" stroke="grey" points="3342.67,-123.018 3347.81,-113.755 3338.01,-117.79 3342.67,-123.018"/>
</g>
<!-- 34&#45;&gt;45 -->
<g id="edge80" class="edge"><title>34&#45;&gt;45</title>
<path fill="none" stroke="grey" stroke-width="2" d="M3315.45,-159.049C3350.55,-148.881 3412.78,-130.855 3462.84,-116.353"/>
<polygon fill="grey" stroke="grey" points="3464.04,-119.648 3472.67,-113.503 3462.09,-112.924 3464.04,-119.648"/>
</g>
<!-- 35&#45;&gt;0 -->
<g id="edge10" class="edge"><title>35&#45;&gt;0</title>
<path fill="none" stroke="grey" stroke-width="2" d="M3100.6,-73.3026C3097.36,-72.8262 3094.16,-72.389 3091,-72 2844.02,-41.5704 2044.79,-23.531 1862.33,-19.7484"/>
<polygon fill="grey" stroke="grey" points="1862.24,-16.2459 1852.17,-19.5393 1862.09,-23.2444 1862.24,-16.2459"/>
</g>
<!-- 36&#45;&gt;0 -->
<g id="edge11" class="edge"><title>36&#45;&gt;0</title>
<path fill="none" stroke="grey" stroke-width="2" d="M538.327,-73.3203C541.248,-72.8347 544.146,-72.3913 547,-72 796.01,-37.856 1603.9,-22.6553 1787.6,-19.5936"/>
<polygon fill="grey" stroke="grey" points="1787.88,-23.0895 1797.82,-19.425 1787.77,-16.0904 1787.88,-23.0895"/>
</g>
<!-- 37&#45;&gt;0 -->
<g id="edge12" class="edge"><title>37&#45;&gt;0</title>
<path fill="none" stroke="grey" stroke-width="2" d="M708.331,-73.3435C711.25,-72.8514 714.148,-72.4004 717,-72 930.78,-41.9949 1619.89,-23.896 1787.84,-19.8617"/>
<polygon fill="grey" stroke="grey" points="1788,-23.3589 1797.91,-19.6215 1787.83,-16.3609 1788,-23.3589"/>
</g>
<!-- 38&#45;&gt;0 -->
<g id="edge13" class="edge"><title>38&#45;&gt;0</title>
<path fill="none" stroke="grey" stroke-width="2" d="M1265.36,-73.5196C1268.27,-72.9782 1271.16,-72.4688 1274,-72 1465.8,-40.36 1698.51,-25.6309 1787.73,-20.8424"/>
<polygon fill="grey" stroke="grey" points="1788.08,-24.3286 1797.89,-20.3072 1787.71,-17.3383 1788.08,-24.3286"/>
</g>
<!-- 39&#45;&gt;0 -->
<g id="edge14" class="edge"><title>39&#45;&gt;0</title>
<path fill="none" stroke="grey" stroke-width="2" d="M1435.38,-73.674C1438.29,-73.0894 1441.17,-72.5289 1444,-72 1568.94,-48.6634 1718.69,-30.7326 1787.3,-23.0678"/>
<polygon fill="grey" stroke="grey" points="1788.05,-26.5066 1797.6,-21.9265 1787.28,-19.5492 1788.05,-26.5066"/>
</g>
<!-- 40&#45;&gt;0 -->
<g id="edge15" class="edge"><title>40&#45;&gt;0</title>
<path fill="none" stroke="grey" stroke-width="2" d="M1891.61,-72.4373C1880.15,-63.241 1866.39,-52.2015 1854.36,-42.55"/>
<polygon fill="grey" stroke="grey" points="1856.34,-39.657 1846.35,-36.1297 1851.96,-45.1172 1856.34,-39.657"/>
</g>
<!-- 41&#45;&gt;0 -->
<g id="edge16" class="edge"><title>41&#45;&gt;0</title>
<path fill="none" stroke="grey" stroke-width="2" d="M2016.06,-72.4373C1966.47,-58.5674 1901.89,-40.5048 1861.95,-29.3347"/>
<polygon fill="grey" stroke="grey" points="1862.68,-25.9046 1852.11,-26.5816 1860.79,-32.6459 1862.68,-25.9046"/>
</g>
<!-- 42&#45;&gt;0 -->
<g id="edge17" class="edge"><title>42&#45;&gt;0</title>
<path fill="none" stroke="grey" stroke-width="2" d="M2566.69,-73.6009C2563.42,-73.02 2560.18,-72.4823 2557,-72 2292.74,-31.9567 1970.08,-21.9513 1862.15,-19.6434"/>
<polygon fill="grey" stroke="grey" points="1862.16,-16.143 1852.09,-19.4377 1862.02,-23.1416 1862.16,-16.143"/>
</g>
<!-- 43&#45;&gt;0 -->
<g id="edge18" class="edge"><title>43&#45;&gt;0</title>
<path fill="none" stroke="grey" stroke-width="2" d="M2736.66,-73.3832C2733.75,-72.88 2730.85,-72.4158 2728,-72 2394.68,-23.375 1985.98,-19.0256 1862.22,-18.8933"/>
<polygon fill="grey" stroke="grey" points="1862.14,-15.3934 1852.14,-18.8915 1862.14,-22.3934 1862.14,-15.3934"/>
</g>
<!-- 44&#45;&gt;0 -->
<g id="edge19" class="edge"><title>44&#45;&gt;0</title>
<path fill="none" stroke="grey" stroke-width="2" d="M3293.71,-73.456C3290.44,-72.9148 3287.19,-72.425 3284,-72 2997.2,-33.8035 2061.59,-21.5831 1862.48,-19.3857"/>
<polygon fill="grey" stroke="grey" points="1862.28,-15.8834 1852.24,-19.2745 1862.2,-22.883 1862.28,-15.8834"/>
</g>
<!-- 45&#45;&gt;0 -->
<g id="edge20" class="edge"><title>45&#45;&gt;0</title>
<path fill="none" stroke="grey" stroke-width="2" d="M3463.68,-73.2874C3460.76,-72.811 3457.86,-72.3785 3455,-72 3132.39,-29.2328 2074.84,-20.5365 1862.37,-19.207"/>
<polygon fill="grey" stroke="grey" points="1862.09,-15.7053 1852.07,-19.1442 1862.04,-22.7052 1862.09,-15.7053"/>
</g>
</g>
</svg>
